<svg width="1664" height="699" viewBox="0 0 1664 699" fill="none" xmlns="http://www.w3.org/2000/svg">
<path d="M198.088 0.592896H318.983C356.547 0.592896 366.477 20.697 366.477 41.0791V43.6732C366.477 66.0008 352.877 76.0066 344.457 78.6933C355.899 82.4918 374.033 93.0534 374.033 124.46V127.332C374.033 155.404 361.728 178.843 319.846 178.843H198.088V0.592896ZM247.093 41.0791V66.2788H304.087C314.233 66.2788 317.256 60.5347 317.256 53.7716V53.3084C317.256 46.3599 314.233 41.0791 304.087 41.0791H247.093ZM247.093 106.302V136.967H307.109C319.846 136.967 322.221 128.537 322.221 121.588V120.847C322.221 113.158 319.63 106.209 307.109 106.209H247.093V106.302Z" fill="black" stroke="white" stroke-miterlimit="10"/>
<path d="M432.539 178.936C373.171 178.936 362.161 139.84 362.161 112.046V108.247C362.161 80.9168 372.955 42.8394 432.539 42.8394H445.708C507.45 42.8394 515.87 81.1947 515.87 108.062V112.416C515.87 140.025 508.098 179.029 445.492 179.029H432.755L432.539 178.936ZM438.799 79.1565C415.7 79.1565 409.655 95.1842 409.655 109.359V110.285C409.655 124.46 415.484 142.156 438.799 142.156C461.683 142.156 467.728 123.719 467.728 110.285V109.359C467.728 95.1842 461.683 79.1565 438.799 79.1565Z" fill="black" stroke="white" stroke-miterlimit="10"/>
<path d="M515.437 139.098H536.593C540.047 139.098 540.911 137.153 540.911 135.022V134.744C540.911 132.15 539.616 128.537 537.025 121.774L493.201 4.85461H543.286L569.192 87.7726L593.155 4.85461H639.786L595.098 139.284C586.031 166.336 576.1 178.843 559.261 178.843H515.653V139.098H515.437Z" fill="black" stroke="white" stroke-miterlimit="10"/>
<path d="M686.417 178.936C626.833 178.936 617.982 139.191 617.982 112.324V107.969C617.982 81.3801 626.617 42.7468 686.201 42.7468H696.995C758.954 42.7468 765.43 82.4919 765.43 100.28V101.021H717.504C717.073 96.2035 713.834 78.6934 691.814 78.6934H691.166C671.089 78.6934 665.908 94.0726 665.908 108.618V109.822C665.908 125.387 671.521 142.434 691.166 142.434H691.814C713.834 142.434 717.073 124.182 717.504 119.18H765.43V119.643C765.43 137.153 760.465 178.843 696.779 178.843H686.417V178.936Z" fill="black" stroke="white" stroke-miterlimit="10"/>
<path d="M824.583 178.936C765.215 178.936 754.205 139.839 754.205 112.046V108.247C754.205 80.9167 764.999 42.8392 824.583 42.8392H837.752C899.494 42.8392 907.914 81.1946 907.914 108.062V112.416C907.914 140.025 900.142 179.029 837.536 179.029H824.799L824.583 178.936ZM830.843 79.1564C807.744 79.1564 801.699 95.1841 801.699 109.359V110.285C801.699 124.46 807.528 142.156 830.843 142.156C853.727 142.156 859.772 123.719 859.772 110.285V109.359C859.772 95.1841 853.727 79.1564 830.843 79.1564Z" fill="black" stroke="white" stroke-miterlimit="10"/>
<path d="M936.194 178.936C920.219 178.936 911.583 166.985 911.583 142.248V89.5328H893.881V49.9731H911.583V12.3589H958.214V49.9731H975.917V89.5328H958.214V127.61C958.214 135.485 959.294 138.913 965.986 138.913H975.917V178.936H936.194Z" fill="black" stroke="white" stroke-miterlimit="10"/>
<path d="M1007.65 178.936C991.676 178.936 983.04 166.985 983.04 142.248V89.5328H965.338V49.9731H983.04V12.3589H1029.67V49.9731H1047.37V89.5328H1029.67V127.61C1029.67 135.485 1030.75 138.913 1037.44 138.913H1047.37V178.936H1007.65Z" fill="black" stroke="white" stroke-miterlimit="10"/>
<path d="M1192.56 178.843C1176.58 178.843 1167.94 166.892 1167.94 142.155V89.4399H1150.24V49.8802H1167.94V12.266H1214.58V49.8802H1232.28V89.4399H1214.58V127.517C1214.58 135.392 1215.66 138.82 1222.35 138.82H1232.28V178.843H1192.56Z" fill="black" stroke="white" stroke-miterlimit="10"/>
<path d="M1226.23 0.5H1273.3V72.3931C1277.18 66.927 1292.08 47.0082 1321.01 47.0082H1322.09C1356.84 47.0082 1367.64 75.5431 1367.64 95.9252V178.843H1320.57V117.234C1320.57 100.002 1314.1 87.4944 1298.12 87.4944C1282.15 87.4944 1273.51 100.65 1273.51 118.901V178.843H1226.45V0.5H1226.23Z" fill="black" stroke="white" stroke-miterlimit="10"/>
<path d="M1499.54 128.722C1499.54 146.695 1491.99 178.843 1434.56 178.843H1425.92C1371.74 178.843 1360.3 142.619 1360.3 112.416V107.599C1360.3 77.8595 1370.87 42.6541 1425.28 42.6541H1434.34C1491.77 42.6541 1499.97 81.9359 1499.97 112.88V120.106H1404.12C1405.42 133.54 1412.97 143.823 1430.89 143.823C1452.05 143.823 1455.28 131.131 1455.72 128.259H1499.54V128.722ZM1404.34 93.7019H1455.07C1453.34 81.4726 1446.65 74.2463 1429.59 74.2463C1412.54 74.2463 1406.28 82.1212 1404.12 93.7019H1404.34Z" fill="black" stroke="white" stroke-miterlimit="10"/>
<path d="M65.8521 446.708C6.62111 446.708 0.5 397.133 0.5 368.33V365.346H45.5084C45.8684 377.166 48.929 396.56 72.3334 396.56H73.5935C96.4578 396.56 99.8785 386.461 99.8785 375.789V375.445C99.8785 364.199 97.178 357.084 74.6738 355.592L54.8701 354.444C13.4624 352.035 2.30033 322.083 2.30033 288.001V285.362C2.30033 249.443 14.0025 218 63.8718 218H76.6541C129.584 218 141.826 252.771 141.826 287.772V290.181H97.358C96.9979 282.149 94.6575 266.771 71.4332 266.771H69.9929C48.5689 266.771 46.4085 274.46 46.4085 283.067V283.411C46.4085 292.362 49.6491 299.477 69.8129 300.28L89.0765 301.198C129.764 303.608 145.607 323.116 145.607 367.641V371.772C145.607 408.838 135.525 446.937 79.1746 446.937H66.0322L65.8521 446.708Z" fill="#FF0000" stroke="white" stroke-miterlimit="10"/>
<path d="M193.677 446.708C143.988 446.708 136.606 397.478 136.606 364.199V358.805C136.606 325.87 143.808 278.017 193.497 278.017H202.499C254.168 278.017 259.569 327.247 259.569 349.28V350.198H219.602C219.242 344.231 216.541 322.542 198.178 322.542H197.638C180.895 322.542 176.574 341.592 176.574 359.608V361.1C176.574 380.379 181.255 401.494 197.638 401.494H198.178C216.541 401.494 219.242 378.887 219.602 372.69H259.569V373.264C259.569 394.953 255.429 446.593 202.319 446.593H193.677V446.708Z" fill="#FF0000" stroke="white" stroke-miterlimit="10"/>
<path d="M308.716 446.708C259.207 446.708 250.025 398.281 250.025 363.854V359.149C250.025 325.297 259.027 278.132 308.716 278.132H319.698C371.188 278.132 378.209 325.641 378.209 358.92V364.313C378.209 398.51 371.728 446.822 319.518 446.822H308.896L308.716 446.708ZM314.117 323.116C294.854 323.116 289.813 342.969 289.813 360.526V361.674C289.813 379.232 294.674 401.15 314.117 401.15C333.201 401.15 338.242 378.313 338.242 361.674V360.526C338.242 342.969 333.201 323.116 314.117 323.116Z" fill="#FF0000" stroke="white" stroke-miterlimit="10"/>
<path d="M401.975 446.708C388.653 446.708 381.452 431.904 381.452 401.265V335.969H366.689V286.968H381.452V240.378H420.339V286.968H435.102V335.969H420.339V383.133C420.339 392.888 421.239 397.133 426.82 397.133H435.102V446.708H401.975Z" fill="#FF0000" stroke="white" stroke-miterlimit="10"/>
<path d="M469.127 273.542H429.879V225.804H469.127V273.657V273.542ZM469.127 446.708H429.879V286.968H469.127V446.708Z" fill="#FF0000" stroke="white" stroke-miterlimit="10"/>
<path d="M500.092 446.708H498.472C472.547 446.708 462.646 421.461 462.646 395.297V391.74C462.646 365.002 470.927 349.28 493.971 345.379L531.238 338.493C534.479 337.575 535.559 335.28 535.559 330.805C535.559 326.329 533.939 318.641 518.636 318.641H518.096C501.533 318.641 501.173 329.887 500.633 334.936H464.266V333.1C464.266 311.755 467.506 279.624 513.955 279.624H522.057C570.486 279.624 573.726 309.346 573.726 331.034V390.133C573.726 394.609 574.266 397.019 576.967 397.019H581.108V443.609H548.521C541.68 443.609 537.179 436.15 535.919 422.265C532.138 429.953 522.237 446.593 499.552 446.593L500.092 446.708ZM535.559 368.33L509.634 377.854C502.793 380.264 500.092 383.477 500.092 391.51V391.855C500.092 399.314 502.613 408.15 512.335 408.15C526.737 408.15 535.559 391.855 535.559 375.215V368.445V368.33Z" fill="#FF0000" stroke="white" stroke-miterlimit="10"/>
<path d="M612.975 222.82V305.673C616.215 300.968 627.737 281.001 650.601 281.001H653.662C688.769 281.001 699.751 318.756 699.751 359.953V366.149C699.751 407.117 687.508 446.593 652.222 446.593H649.341C627.737 446.593 615.855 427.888 612.254 422.494C611.174 428.117 610.634 436.724 610.274 443.609H573.907V222.82H613.155H612.975ZM612.975 364.084C612.975 382.215 620.716 402.068 636.379 402.068H637.279C654.742 402.068 659.963 381.871 659.963 364.084V362.936C659.963 343.887 654.742 324.952 637.279 324.952H636.379C620.176 324.952 612.975 344.002 612.975 362.936V364.084Z" fill="#FF0000" stroke="white" stroke-miterlimit="10"/>
<path d="M727.656 446.708H726.036C700.111 446.708 690.209 421.462 690.209 395.297V391.74C690.209 365.002 698.491 349.28 721.535 345.379L758.802 338.493C762.042 337.575 763.123 335.28 763.123 330.805C763.123 326.329 761.502 318.641 746.199 318.641H745.659C729.096 318.641 728.736 329.887 728.196 334.936H691.829V333.1C691.829 311.756 695.07 279.624 741.519 279.624H749.62C798.049 279.624 801.29 309.346 801.29 331.034V390.133C801.29 394.609 801.83 397.019 804.53 397.019H808.671V443.609H776.085C769.244 443.609 764.743 436.15 763.483 422.265C759.702 429.953 749.8 446.593 727.116 446.593L727.656 446.708ZM763.303 368.33L737.378 377.855C730.537 380.264 727.836 383.478 727.836 391.51V391.855C727.836 399.314 730.357 408.15 740.078 408.15C754.481 408.15 763.303 391.855 763.303 375.215V368.445V368.33Z" fill="#FF0000" stroke="white" stroke-miterlimit="10"/>
<path d="M801.469 286.968H840.356V315.198C844.317 307.739 856.199 283.411 880.323 283.411H881.223C910.209 283.411 919.211 318.755 919.211 344.002V446.708H879.963V370.395C879.963 349.051 874.562 333.559 861.24 333.559C847.917 333.559 840.716 349.854 840.716 372.461V446.708H801.469V286.968Z" fill="#FF0000" stroke="white" stroke-miterlimit="10"/>
<path d="M916.331 446.708V225.804H955.578V349.28L982.043 286.968H1024.17L992.665 357.658L1028.85 446.708H984.384L955.578 374.871V446.708H916.331Z" fill="#FF0000" stroke="white" stroke-miterlimit="10"/>
<path d="M1154.16 377.625V446.823H1113.29V225.919H1202.58C1242.19 225.919 1253.35 258.28 1253.35 298.903V303.608C1253.35 343.658 1241.65 377.51 1202.58 377.51H1154.16V377.625ZM1154.16 322.428H1197.72C1207.09 322.428 1211.23 314.395 1211.23 302.231V301.313C1211.23 288.575 1207.27 281.116 1197.72 281.116H1154.16V322.428Z" fill="#FF0000" stroke="white" stroke-miterlimit="10"/>
<path d="M1247.05 225.919H1286.3V314.969C1289.54 308.198 1301.96 283.526 1326.09 283.526H1326.99C1355.97 283.526 1364.97 318.87 1364.97 344.117V446.823H1325.73V370.51C1325.73 349.166 1320.33 333.674 1307 333.674C1293.68 333.674 1286.48 349.969 1286.48 372.576V446.823H1247.23V225.919H1247.05Z" fill="#FF0000" stroke="white" stroke-miterlimit="10"/>
<path d="M1417.54 446.823C1368.03 446.823 1358.85 398.396 1358.85 363.969V359.264C1358.85 325.411 1367.85 278.247 1417.54 278.247H1428.53C1480.01 278.247 1487.04 325.756 1487.04 359.035V364.428C1487.04 398.625 1480.56 446.937 1428.35 446.937H1417.72L1417.54 446.823ZM1422.94 323.231C1403.68 323.231 1398.64 343.084 1398.64 360.641V361.789C1398.64 379.346 1403.5 401.265 1422.94 401.265C1442.03 401.265 1447.07 378.428 1447.07 361.789V360.641C1447.07 343.084 1442.03 323.231 1422.94 323.231Z" fill="#FF0000" stroke="white" stroke-miterlimit="10"/>
<path d="M1510.8 446.823C1497.48 446.823 1490.28 432.019 1490.28 401.38V336.084H1475.51V287.083H1490.28V240.493H1529.16V287.083H1543.93V336.084H1529.16V383.248C1529.16 393.002 1530.06 397.248 1535.65 397.248H1543.93V446.823H1510.8Z" fill="#FF0000" stroke="white" stroke-miterlimit="10"/>
<path d="M1593.98 446.823C1544.47 446.823 1535.29 398.396 1535.29 363.969V359.264C1535.29 325.411 1544.29 278.247 1593.98 278.247H1604.96C1656.45 278.247 1663.47 325.756 1663.47 359.035V364.428C1663.47 398.625 1656.99 446.937 1604.78 446.937H1594.16L1593.98 446.823ZM1599.38 323.231C1580.11 323.231 1575.07 343.084 1575.07 360.641V361.789C1575.07 379.346 1579.93 401.265 1599.38 401.265C1618.46 401.265 1623.5 378.428 1623.5 361.789V360.641C1623.5 343.084 1618.46 323.231 1599.38 323.231Z" fill="#FF0000" stroke="white" stroke-miterlimit="10"/>
<path d="M665.959 662.775H607.369L599.442 698.349H559.807L610.47 477.445H663.202L716.794 698.349H673.886L665.959 662.775ZM636.147 531.61L619.259 607.578H653.379L636.147 531.61Z" fill="#FF0000" stroke="white" stroke-miterlimit="10"/>
<path d="M716.104 698.464L686.809 538.725H725.754L740.23 639.365L754.36 538.725H792.961L807.436 639.021L821.566 538.725H857.41L829.838 698.464H787.963L773.143 601.726L758.324 698.464H715.932H716.104Z" fill="#FF0000" stroke="white" stroke-miterlimit="10"/>
<path d="M877.744 698.464H876.193C851.379 698.464 841.901 673.218 841.901 647.053V643.496C841.901 616.758 849.828 601.037 871.885 597.135L907.556 590.25C910.658 589.332 911.692 587.036 911.692 582.561C911.692 578.086 910.141 570.397 895.494 570.397H894.977C879.123 570.397 878.778 581.643 878.261 586.692H843.452V584.856C843.452 563.512 846.554 531.38 891.013 531.38H898.768C945.123 531.38 948.225 561.102 948.225 582.791V641.889C948.225 646.365 948.742 648.775 951.327 648.775H955.29V695.365H924.099C917.551 695.365 913.243 687.906 912.037 674.021C908.418 681.71 898.94 698.349 877.227 698.349L877.744 698.464ZM911.864 620.086L887.05 629.611C880.501 632.021 877.916 635.234 877.916 643.267V643.611C877.916 651.07 880.329 659.906 889.635 659.906C903.421 659.906 911.864 643.611 911.864 626.971V620.201V620.086Z" fill="#FF0000" stroke="white" stroke-miterlimit="10"/>
<path d="M985.619 568.103C988.548 558.922 998.199 535.168 1016.64 535.168H1018.36C1042.83 535.168 1049.55 571.66 1049.55 605.857V621.923H1013.19V616.3C1013.19 598.513 1009.57 583.594 999.75 583.594C989.927 583.594 985.964 597.824 985.964 618.021V698.465H948.397V538.725H985.619V568.103Z" fill="#FF0000" stroke="white" stroke-miterlimit="10"/>
<path d="M1160.87 474.576V695.48H1123.48V672.3C1121.07 678.267 1110.9 698.464 1087.81 698.464H1085.39C1053 698.464 1040.42 660.136 1040.42 617.676V611.48C1040.42 570.856 1051.96 532.757 1084.19 532.757H1086.77C1109.69 532.757 1119.69 550.315 1123.13 555.938V474.576H1160.7H1160.87ZM1123.48 614.119C1123.48 596.332 1115.9 577.282 1100.21 577.282H1099.52C1083.33 577.282 1078.67 596.332 1078.67 614.119V615.611C1078.67 633.168 1084.19 653.365 1099.7 653.365H1100.21C1116.24 653.365 1123.48 633.513 1123.48 615.611V614.119Z" fill="#FF0000" stroke="white" stroke-miterlimit="10"/>
</svg>
