<svg width="677" height="217" viewBox="0 0 677 217" fill="none" xmlns="http://www.w3.org/2000/svg">
<path d="M85.1319 87.4163C78.9039 87.4163 74.4399 81.7283 74.4399 73.5563C74.4399 65.2403 79.1559 59.0123 85.4559 59.0123C89.7759 59.0123 93.2679 61.8923 94.9599 66.7523L92.2239 67.5083C90.8919 64.2323 88.4439 62.3243 85.3839 62.3243C80.6319 62.3243 77.2479 67.0043 77.2479 73.4123C77.2479 79.7123 80.5239 84.1403 85.0959 84.1403C88.5159 84.1403 91.2159 81.7283 92.4759 77.7683L95.0679 78.4883C93.4119 84.1403 89.8839 87.4163 85.1319 87.4163ZM96.4249 86.7323L104.885 59.6603H107.945L116.333 86.7323H113.561L111.149 78.9203H101.609L99.2329 86.7323H96.4249ZM102.653 75.7523H110.141L106.433 63.5843L102.653 75.7523ZM118.297 86.7323V59.6603H120.925V83.4923H133.417V86.7323H118.297ZM135.91 86.7323V59.6603H138.538V83.4923H151.03V86.7323H135.91ZM153.883 86.7323V59.6603H156.547V86.7323H153.883ZM160.519 86.7323V59.6603H163.291L174.739 81.0443V59.6603H177.331V86.7323H174.595L163.111 65.2403V86.7323H160.519ZM189.801 87.4163C184.149 87.4163 180.225 81.6923 180.225 73.5203C180.225 65.6003 183.933 59.0123 190.305 59.0123C194.589 59.0123 197.649 62.0003 199.053 66.8243L196.497 67.5443C195.345 63.9803 193.041 62.2883 190.305 62.2883C185.625 62.2883 182.925 67.1843 182.925 73.5203C182.925 80.2523 186.093 84.1763 189.981 84.1763C193.725 84.1763 196.533 80.5403 196.677 75.5363H190.593V72.3323H199.269V86.7323H196.965L196.713 83.2043C195.309 85.7963 192.789 87.4163 189.801 87.4163ZM208.292 86.7323L216.752 59.6603H219.812L228.2 86.7323H225.428L223.016 78.9203H213.476L211.1 86.7323H208.292ZM214.52 75.7523H222.008L218.3 63.5843L214.52 75.7523ZM230.164 86.7323V59.6603H232.792V83.4923H245.284V86.7323H230.164ZM247.777 86.7323V59.6603H250.405V83.4923H262.897V86.7323H247.777ZM272.597 86.7323V59.6603H281.381C285.629 59.6603 288.329 62.9363 288.329 67.3643C288.329 71.8283 285.557 75.1403 281.381 75.1403H275.225V86.7323H272.597ZM275.225 71.9363H281.381C283.937 71.9363 285.665 70.1363 285.665 67.3643C285.665 64.5923 284.009 62.8643 281.381 62.8643H275.225V71.9363ZM291.054 86.7323V59.6603H293.646V71.3243H305.454V59.6603H308.046V86.7323H305.454V74.4923H293.646V86.7323H291.054ZM321.627 87.4163C315.435 87.4163 310.971 81.4403 310.971 73.3043C310.971 65.2763 315.183 59.0123 321.627 59.0123C328.071 59.0123 332.211 65.3123 332.211 73.3043C332.211 81.4403 327.819 87.4163 321.627 87.4163ZM321.627 84.2123C326.127 84.2123 329.439 79.7123 329.439 73.2683C329.439 67.0043 326.415 62.2523 321.627 62.2523C316.875 62.2523 313.815 67.0043 313.815 73.2683C313.815 79.6763 317.127 84.2123 321.627 84.2123ZM341.009 86.7323V62.8643H333.593V59.6603H351.053V62.8643H343.601V86.7323H341.009ZM363.076 87.4163C356.884 87.4163 352.42 81.4403 352.42 73.3043C352.42 65.2763 356.632 59.0123 363.076 59.0123C369.52 59.0123 373.66 65.3123 373.66 73.3043C373.66 81.4403 369.268 87.4163 363.076 87.4163ZM363.076 84.2123C367.576 84.2123 370.888 79.7123 370.888 73.2683C370.888 67.0043 367.864 62.2523 363.076 62.2523C358.324 62.2523 355.264 67.0043 355.264 73.2683C355.264 79.6763 358.576 84.2123 363.076 84.2123ZM385.41 87.4163C379.758 87.4163 375.834 81.6923 375.834 73.5203C375.834 65.6003 379.542 59.0123 385.914 59.0123C390.198 59.0123 393.258 62.0003 394.662 66.8243L392.106 67.5443C390.954 63.9803 388.65 62.2883 385.914 62.2883C381.234 62.2883 378.534 67.1843 378.534 73.5203C378.534 80.2523 381.702 84.1763 385.59 84.1763C389.334 84.1763 392.142 80.5403 392.286 75.5363H386.202V72.3323H394.878V86.7323H392.574L392.322 83.2043C390.918 85.7963 388.398 87.4163 385.41 87.4163ZM398.386 86.7323V59.6603H407.386C411.562 59.6603 414.334 62.9363 414.334 67.4363C414.334 70.4963 413.038 72.9803 410.626 74.2043C413.362 76.2203 412.426 80.8283 414.874 86.7323H411.922C410.23 82.7003 410.626 75.0683 406.702 75.0683H400.978V86.7323H398.386ZM400.978 71.8643H407.314C409.906 71.8643 411.67 69.9923 411.67 67.2923C411.67 64.6283 409.978 62.8643 407.314 62.8643H400.978V71.8643ZM416.206 86.7323L424.666 59.6603H427.726L436.114 86.7323H433.342L430.93 78.9203H421.39L419.014 86.7323H416.206ZM422.434 75.7523H429.922L426.214 63.5843L422.434 75.7523ZM438.078 86.7323V59.6603H446.862C451.11 59.6603 453.81 62.9363 453.81 67.3643C453.81 71.8283 451.038 75.1403 446.862 75.1403H440.706V86.7323H438.078ZM440.706 71.9363H446.862C449.418 71.9363 451.146 70.1363 451.146 67.3643C451.146 64.5923 449.49 62.8643 446.862 62.8643H440.706V71.9363ZM456.535 86.7323V59.6603H459.127V71.3243H470.935V59.6603H473.527V86.7323H470.935V74.4923H459.127V86.7323H456.535ZM477.172 86.7323V59.6603H492.292V62.8643H479.764V71.2163H491.32V74.4203H479.764V83.4923H492.544V86.7323H477.172ZM495.523 86.7323V59.6603H504.523C508.699 59.6603 511.471 62.9363 511.471 67.4363C511.471 70.4963 510.175 72.9803 507.763 74.2043C510.499 76.2203 509.563 80.8283 512.011 86.7323H509.059C507.367 82.7003 507.763 75.0683 503.839 75.0683H498.115V86.7323H495.523ZM498.115 71.8643H504.451C507.043 71.8643 508.807 69.9923 508.807 67.2923C508.807 64.6283 507.115 62.8643 504.451 62.8643H498.115V71.8643ZM523.063 87.4163C518.311 87.4163 515.323 84.4643 514.603 78.9923L517.195 78.3443C517.735 82.1963 519.679 84.1763 522.919 84.1763C526.087 84.1763 528.247 82.3043 528.247 79.6403C528.247 77.3003 526.555 75.6803 522.415 74.1683C517.375 72.3683 515.215 69.7043 515.215 65.9603C515.215 61.6763 518.059 59.0123 522.559 59.0123C526.987 59.0123 529.615 61.5323 530.515 66.3563L527.851 67.0763C527.239 63.8363 525.547 62.2163 522.487 62.2163C519.679 62.2163 517.915 63.5843 517.915 65.9243C517.915 68.0843 519.427 69.5603 523.495 71.1443C528.931 73.1963 530.947 75.8603 530.947 79.6403C530.947 84.3563 527.851 87.4163 523.063 87.4163ZM536.429 91.9523L535.565 90.4403C536.681 89.6483 537.509 88.5323 537.581 87.0563C536.249 87.5243 535.061 86.3003 535.061 84.7523C535.061 83.4203 535.925 82.3043 537.041 82.3043C537.905 82.3043 539.201 82.9523 539.201 85.9403C539.201 88.3163 538.301 90.3683 536.429 91.9523ZM75.1599 129.732V102.66H83.9439C88.1919 102.66 90.8919 105.936 90.8919 110.364C90.8919 114.828 88.1199 118.14 83.9439 118.14H77.7879V129.732H75.1599ZM77.7879 114.936H83.9439C86.4999 114.936 88.2279 113.136 88.2279 110.364C88.2279 107.592 86.5719 105.864 83.9439 105.864H77.7879V114.936ZM93.6169 129.732V102.66H96.2089V114.324H108.017V102.66H110.609V129.732H108.017V117.492H96.2089V129.732H93.6169ZM124.19 130.416C117.998 130.416 113.534 124.44 113.534 116.304C113.534 108.276 117.746 102.012 124.19 102.012C130.634 102.012 134.774 108.312 134.774 116.304C134.774 124.44 130.382 130.416 124.19 130.416ZM124.19 127.212C128.69 127.212 132.002 122.712 132.002 116.268C132.002 110.004 128.978 105.252 124.19 105.252C119.438 105.252 116.378 110.004 116.378 116.268C116.378 122.676 119.69 127.212 124.19 127.212ZM143.572 129.732V105.864H136.156V102.66H153.616V105.864H146.164V129.732H143.572ZM165.639 130.416C159.447 130.416 154.983 124.44 154.983 116.304C154.983 108.276 159.195 102.012 165.639 102.012C172.083 102.012 176.223 108.312 176.223 116.304C176.223 124.44 171.831 130.416 165.639 130.416ZM165.639 127.212C170.139 127.212 173.451 122.712 173.451 116.268C173.451 110.004 170.427 105.252 165.639 105.252C160.887 105.252 157.827 110.004 157.827 116.268C157.827 122.676 161.139 127.212 165.639 127.212ZM179.117 129.732V102.66H187.901C192.113 102.66 194.525 105.144 194.525 109.428C194.525 112.092 193.625 114.18 191.789 115.404C194.165 116.412 195.461 118.788 195.461 121.884C195.461 126.564 192.437 129.732 188.009 129.732H179.117ZM181.709 113.928H187.145C190.061 113.928 191.969 112.272 191.969 109.608C191.969 107.232 190.421 105.864 187.793 105.864H181.709V113.928ZM181.709 126.492H187.829C190.925 126.492 192.797 124.764 192.797 121.884C192.797 118.896 190.781 117.06 187.541 117.06H181.709V126.492ZM196.831 129.732L205.291 102.66H208.351L216.739 129.732H213.967L211.555 121.92H202.015L199.639 129.732H196.831ZM203.059 118.752H210.547L206.839 106.584L203.059 118.752ZM226.731 130.416C221.979 130.416 218.991 127.464 218.271 121.992L220.863 121.344C221.403 125.196 223.347 127.176 226.587 127.176C229.755 127.176 231.915 125.304 231.915 122.64C231.915 120.3 230.223 118.68 226.083 117.168C221.043 115.368 218.883 112.704 218.883 108.96C218.883 104.676 221.727 102.012 226.227 102.012C230.655 102.012 233.283 104.532 234.183 109.356L231.519 110.076C230.907 106.836 229.215 105.216 226.155 105.216C223.347 105.216 221.583 106.584 221.583 108.924C221.583 111.084 223.095 112.56 227.163 114.144C232.599 116.196 234.615 118.86 234.615 122.64C234.615 127.356 231.519 130.416 226.731 130.416ZM237.793 129.732V102.66H252.913V105.864H240.385V114.216H251.941V117.42H240.385V126.492H253.165V129.732H237.793ZM256.144 129.732V102.66H263.776C270.508 102.66 274.072 107.844 274.072 116.052C274.072 124.116 270.508 129.732 263.776 129.732H256.144ZM258.736 126.528H263.308C268.492 126.528 271.408 122.964 271.408 116.052C271.408 109.032 268.492 105.864 263.308 105.864H258.736V126.528ZM282.612 129.732L291.072 102.66H294.132L302.52 129.732H299.748L297.336 121.92H287.796L285.42 129.732H282.612ZM288.84 118.752H296.328L292.62 106.584L288.84 118.752ZM304.484 129.732V102.66H313.484C317.66 102.66 320.432 105.936 320.432 110.436C320.432 113.496 319.136 115.98 316.724 117.204C319.46 119.22 318.524 123.828 320.972 129.732H318.02C316.328 125.7 316.724 118.068 312.8 118.068H307.076V129.732H304.484ZM307.076 114.864H313.412C316.004 114.864 317.768 112.992 317.768 110.292C317.768 107.628 316.076 105.864 313.412 105.864H307.076V114.864ZM329.9 129.732V105.864H322.484V102.66H339.944V105.864H332.492V129.732H329.9ZM342.391 129.732V102.66H345.055V129.732H342.391ZM357.055 130.416C352.303 130.416 349.315 127.464 348.595 121.992L351.187 121.344C351.727 125.196 353.671 127.176 356.911 127.176C360.079 127.176 362.239 125.304 362.239 122.64C362.239 120.3 360.547 118.68 356.407 117.168C351.367 115.368 349.207 112.704 349.207 108.96C349.207 104.676 352.051 102.012 356.551 102.012C360.979 102.012 363.607 104.532 364.507 109.356L361.843 110.076C361.231 106.836 359.539 105.216 356.479 105.216C353.671 105.216 351.907 106.584 351.907 108.924C351.907 111.084 353.419 112.56 357.487 114.144C362.923 116.196 364.939 118.86 364.939 122.64C364.939 127.356 361.843 130.416 357.055 130.416ZM374.021 129.732V105.864H366.605V102.66H384.065V105.864H376.613V129.732H374.021ZM388.456 134.952L387.592 133.44C388.708 132.648 389.536 131.532 389.608 130.056C388.276 130.524 387.088 129.3 387.088 127.752C387.088 126.42 387.952 125.304 389.068 125.304C389.932 125.304 391.228 125.952 391.228 128.94C391.228 131.316 390.328 133.368 388.456 134.952ZM401.3 129.732L409.76 102.66H412.82L421.208 129.732H418.436L416.024 121.92H406.484L404.108 129.732H401.3ZM407.528 118.752H415.016L411.308 106.584L407.528 118.752ZM423.172 129.732V102.66H425.944L437.392 124.044V102.66H439.984V129.732H437.248L425.764 108.24V129.732H423.172ZM443.597 129.732V102.66H451.229C457.961 102.66 461.525 107.844 461.525 116.052C461.525 124.116 457.961 129.732 451.229 129.732H443.597ZM446.189 126.528H450.761C455.945 126.528 458.861 122.964 458.861 116.052C458.861 109.032 455.945 105.864 450.761 105.864H446.189V126.528ZM481.73 130.416C475.502 130.416 471.038 124.728 471.038 116.556C471.038 108.24 475.754 102.012 482.054 102.012C486.374 102.012 489.866 104.892 491.558 109.752L488.822 110.508C487.49 107.232 485.042 105.324 481.982 105.324C477.23 105.324 473.846 110.004 473.846 116.412C473.846 122.712 477.122 127.14 481.694 127.14C485.114 127.14 487.814 124.728 489.074 120.768L491.666 121.488C490.01 127.14 486.482 130.416 481.73 130.416ZM503.067 130.416C497.847 130.416 494.715 126.636 494.715 119.508V102.66H497.343V119.508C497.343 124.548 499.395 127.176 503.067 127.176C506.847 127.176 508.971 124.584 508.971 119.544V102.66H511.563V119.544C511.563 126.564 508.359 130.416 503.067 130.416ZM515.175 129.732V102.66H524.175C528.351 102.66 531.123 105.936 531.123 110.436C531.123 113.496 529.827 115.98 527.415 117.204C530.151 119.22 529.215 123.828 531.663 129.732H528.711C527.019 125.7 527.415 118.068 523.491 118.068H517.767V129.732H515.175ZM517.767 114.864H524.103C526.695 114.864 528.459 112.992 528.459 110.292C528.459 107.628 526.767 105.864 524.103 105.864H517.767V114.864ZM532.995 129.732L541.455 102.66H544.515L552.903 129.732H550.131L547.719 121.92H538.179L535.803 129.732H532.995ZM539.223 118.752H546.711L543.003 106.584L539.223 118.752ZM560.771 129.732V105.864H553.355V102.66H570.815V105.864H563.363V129.732H560.771ZM582.838 130.416C576.646 130.416 572.182 124.44 572.182 116.304C572.182 108.276 576.394 102.012 582.838 102.012C589.282 102.012 593.422 108.312 593.422 116.304C593.422 124.44 589.03 130.416 582.838 130.416ZM582.838 127.212C587.338 127.212 590.65 122.712 590.65 116.268C590.65 110.004 587.626 105.252 582.838 105.252C578.086 105.252 575.026 110.004 575.026 116.268C575.026 122.676 578.338 127.212 582.838 127.212ZM596.316 129.732V102.66H605.316C609.492 102.66 612.264 105.936 612.264 110.436C612.264 113.496 610.968 115.98 608.556 117.204C611.292 119.22 610.356 123.828 612.804 129.732H609.852C608.16 125.7 608.556 118.068 604.632 118.068H598.908V129.732H596.316ZM598.908 114.864H605.244C607.836 114.864 609.6 112.992 609.6 110.292C609.6 107.628 607.908 105.864 605.244 105.864H598.908V114.864ZM623.856 130.416C619.104 130.416 616.116 127.464 615.396 121.992L617.988 121.344C618.528 125.196 620.472 127.176 623.712 127.176C626.88 127.176 629.04 125.304 629.04 122.64C629.04 120.3 627.348 118.68 623.208 117.168C618.168 115.368 616.008 112.704 616.008 108.96C616.008 104.676 618.852 102.012 623.352 102.012C627.78 102.012 630.408 104.532 631.308 109.356L628.644 110.076C628.032 106.836 626.34 105.216 623.28 105.216C620.472 105.216 618.708 106.584 618.708 108.924C618.708 111.084 620.22 112.56 624.288 114.144C629.724 116.196 631.74 118.86 631.74 122.64C631.74 127.356 628.644 130.416 623.856 130.416Z" fill="black"/>
<path d="M103.38 176.22C108.83 176.93 110.195 177.537 115.927 179.655C121.411 181.681 123.677 186.321 124.716 191.057C125.801 196.009 121.84 204.703 118.152 207.232C112.273 211.264 104.01 214.107 97.9985 215.071C94.9445 215.426 91.8838 215.509 88.7305 215.594" stroke="black" stroke-width="2" stroke-linecap="round"/>
<path d="M178.628 176.989C174.613 176.989 163.118 176.422 154.007 181.572C151.011 183.265 145.49 187.712 141.727 192.268C137.161 197.796 133.21 204.152 129.478 207.36C125.448 210.825 122.06 211.687 117.423 213.239C109.775 215.798 91.4219 215.418 89.2388 215.798" stroke="black" stroke-width="2" stroke-linecap="round"/>
<mask id="mask0_14_430" style="mask-type:alpha" maskUnits="userSpaceOnUse" x="0" y="0" width="677" height="210">
<rect width="104.703" height="189.396" fill="#D9D9D9"/>
<rect x="82.4741" width="122.919" height="65.8497" fill="#D9D9D9"/>
<rect x="178.628" width="497.427" height="209.465" fill="#D9D9D9"/>
</mask>
<g mask="url(#mask0_14_430)">
<rect x="32.0679" y="13.2966" width="640.988" height="163.602" rx="81.8008" stroke="black" stroke-width="2"/>
</g>
</svg>
