<?xml version="1.0" encoding="UTF-8"?><svg id="a" xmlns="http://www.w3.org/2000/svg" viewBox="0 0 978.6 270.8"><path d="M674.9,67.5c0,2.4,0,4.8,0,7.1,0,8.2-1.9,16.1-6.2,22.8-2.7,4.2-6.1,8.9-12.5,9-2.1,0-4.1,1-6.2,1-5.6,0-10.7-2-14.4-6.1-3.8-4.2-6.3-9.3-7.4-15.1-1.7-9.1-2.5-18.3-2.3-27.6,0-.7-.4-1.3-.6-2-.7.3-1.6.5-2.1,1.1-1.9,1.7-3.3,3.4-6.4,3.6-5.3.3-8.3-2.2-10.6-6.5-1.8-3.5-3.9-3.6-6.9-1.1-3.3,2.7-3.6,6.5-4.2,10-1,5.3,0,10.8,2.2,15.8.7,1.7,2.1,3.4,3.7,4.3,2.7,1.6,3.9-1,5.3-2.7,1.5-1.6,2.8-3.5,4.4-4.9,3-2.7,6.4-1,9.2.2,4.7,2,5.7,6.8,4.5,11.6-1.2,4.6-2.8,8.5-6.1,11.9-2.9,2.9-5.6,6.1-10.2,6.5-1.4.1-2.8,1-4.2,1.1-10.4.6-17.6-4.3-21.8-13.6-2.3-5-4.1-10.1-3.7-15.8.1-1.3,1.4-4-1.5-4-3.2,0-1.5,2.7-1.7,4.2-.6,4.5-.1,9.3-1.5,13.5-2,6-6.4,10.5-12.1,13.3-6,2.9-12.1,3-18.8,1.5-11.4-2.7-16.8-10.1-18.8-20.8-.5-2.9-.8-5.8-1.2-8.8-.5-4.2,3.4-7.9,7.7-7.8,7,.1,7.5.6,10,7.3,1.5,4.2,4.8,7,8.7,8.9,1.6.8,6-1.9,7.2-4,1.9-3.4,1.5-5.2-1.2-8.2-3.9-4.2-8.7-6.9-13.6-9.6-5.9-3.3-11.2-7.6-14.3-13.7-2-3.9-3.6-8.1-3.2-12.7.5-5.4,0-11,1.4-16.2,2.1-7.7,6.9-13.8,14.9-16.4,2.9-.9,6.1-1.3,9.1-1.2,8.5.4,15.4,3.6,20.4,11.1,4.2,6.3,5.5,13.1,5.4,20.3,0,3.3-2.8,6.2-6,6.8-6.7,1.1-10.6-2.2-12.9-8.7-1-3-4.4-6.3-7.3-7.1-3.1-.9-6.1,2.5-6.9,5.8-.4,1.7.7,4.3,2,5.9,4,5.3,10.2,7.7,15.8,10.9,6,3.5,10.9,8,13.9,14.3.3.6.2,1.5.4,2.2.2.7.6,1.4.9,2.1.8-.6,2.1-1.2,2.2-2,.6-2.9,1.1-5.8,1.3-8.7.4-8.6,2.7-16.6,9.5-22.3,5.4-4.5,11.6-6.3,19.1-4.5,4.1,1,7.5,2.8,10.1,5.4,3.1,3.1,6.4,6.8,6.7,11.8.1,1.5.7,3,1.2,4.5.1.3,1.1.7,1.2.6.7-.7,1.8-1.5,1.9-2.3.9-5.9,3.8-10.9,7.8-14.8,5.4-5.2,11.9-6.8,19.8-5.1,9.5,2.1,13.7,8.9,16.4,16.4,2.4,6.7,2.4,14.3,3.5,21.5-.3,0-.6,0-.8.1ZM658.2,68.3c-.3,0-.6-.1-.8-.2,0-1.8.2-3.7,0-5.5-.6-3.6-1.3-7.3-4.3-9.8-.8-.6-2.6-.9-3.4-.5-1.5,1-2.8,2.4-3.6,4-2.5,5.1-3.1,10.6-2.2,16.1.5,3.3,2.2,6.8,4.2,9.5,2.6,3.5,5.4,3,7-1.3,1.5-4,2.2-8.2,3.2-12.3Z" style="fill:#e93223;"/><path d="M783.8,55.1c0-14.3,0-28.5,0-42.8,0-5.3,2.8-7.8,8.1-8.1,4.7-.3,8.5,3.6,8.3,8-.2,3.8,0,7.6,0,11.3,0,4.5,2.3,5.9,6.6,5.2,4.1-.7,8,0,11.8,2.4,4.1,2.5,6.9,6,8.6,10.2,1.6,3.8,2.5,8,3,12.1.7,5.9.8,11.9,1.3,17.8,0,.8,1,1.5,1.5,2.3.6-.7,1.5-1.4,1.7-2.2,1.9-7,9.1-12.5,16.4-12.7,2.7,0,5.6,1.2,7.9-1.5,1-1.2,1.7-2.1.2-3.5-1.4-1.3-2.7-2.8-4.6-1.2-3.6,3-7.6,4.4-12.3,4.1-3.8-.3-8.1-3.2-8.5-6.9-.2-2.2.5-4.6,1.3-6.7,1.8-4.7,5-8.9,9.2-11.2,5.4-2.9,11.3-4,17.9-2.5,5.1,1.2,8.3,4,11.5,7.4,3.3,3.6,5.3,8,5.3,12.9.2,16,0,32,0,48,0,6.9-5.7,11.3-12.1,8.5-4-1.7-7.3-.5-10.7.6-6.2,2-11.5.5-16.6-3.1-5.1-3.6-5.8-9.2-7.1-14.6-.2-.9-1.1-1.5-1.7-2.3-.5.7-1.3,1.4-1.5,2.2-1.6,6.3-4.1,11.7-9.9,15.4-3.3,2.1-6.5,3.4-10.3,3.2-1.5-.1-3.1-.5-4.5-1.2-2.8-1.4-5.3-1.5-8.2-.2-6.2,2.7-12.5-1.4-12.5-8.1,0-14.3,0-28.5,0-42.8ZM814.1,68.1c-.5-2.2-.9-4.3-1.4-6.5-.5-2-.7-4.2-1.6-6-1.6-3.3-5-3.8-7.3-1.1-1,1.2-1.8,2.9-2.1,4.4-.7,3.3-1.6,6.6-1.5,9.9.2,3.6,1.1,7.2,2.3,10.6.5,1.5,2.4,2.8,4,3.4,2.3.8,4.1-1.1,4.7-2.9,1.3-3.8,1.9-7.9,2.8-11.9ZM851.1,81.8c0,2.2,2.7,5.4,4.3,4.4,2.4-1.4,4.3-4.1,5.7-6.6.3-.5-2.2-3.3-3.8-4.1-1.6-.8-6.2,4.2-6.2,6.3Z" style="fill:#e93223;"/><path d="M454.6,219.5c0-13.8,0-27.7,0-41.5,0-6.6,4.5-9.1,10.9-7.4,3.5.9,8,.4,11.4-1,4.9-2,8.3.3,11.6,2.5,5.4,3.8,8.2,9.4,9,16,.2,2.1.5,4.2,1.3,6.1.3.7,2,1,3.1,1.1.8,0,1.9-.6,2.4-1.2.4-.4,0-1.5,0-2.2,0-13,.3-26-.1-38.9-.2-6.6,6.2-11,11.7-7.2,1.7,1.1,3.1,3.8,3.3,5.9.5,4.5.1,9.1.2,13.6,0,3.4,3.9,6,6.9,4.7,4.3-1.8,10.3-.7,13.6,2.5,3.2,3.1,5.3,6.7,6.3,11.3,1.5,6.8,2.2,13.5,2.2,20.4-.1,10.7-.2,21.4,0,32.1,0,4.2-3.7,7.9-7.7,7.8-3.8,0-7.5-3.6-7.5-7.7.2-12.2.1-24.4,0-36.7,0-3-.8-5.9-3.2-8.3-1.5-1.6-3.3-2.7-5.1-1.7-1.8,1-3.8,2.9-4.3,4.8-1,3.5-1.2,7.3-1.3,11-.2,10.3-.2,20.6,0,30.8,0,4.3-3.6,7.8-7.7,7.8-3.8,0-7.6-3.5-7.5-7.7.2-5.2,0-10.4,0-15.6,0-2.7-1.6-2.2-3.2-2.3-1.8-.1-2.6.2-2.8,2.4-.6,8.2-3.2,15.7-10,20.9-3.7,2.8-8.1,5-13.1,2.3-2.8-1.5-6.9,1.2-6.9,4.4,0,4.6.1,9.3,0,14-.1,2.6-.9,4.8-3.7,6-5.3,2.4-10.1-.6-10.1-6.4,0-14.2,0-28.3,0-42.5ZM485.5,207.1c-.3,0-.5-.1-.8-.2.3-5.3-.8-10.2-3.4-14.8-1.6-2.8-5.7-3.8-7.5-1.3-1.8,2.5-3.8,5.6-3.9,8.6-.3,6.2.4,12.5,1,18.7.3,3.3,2.6,5.7,5.9,6,3,.3,4.8-2.3,5.6-4.8,1.3-4,2.1-8.2,3.1-12.3Z"/><path d="M364.1,211.5c0,10.4,0,20.8,0,31.2,0,5.4-1.1,10.5-3.6,15.1-3.4,6.2-8.4,10.7-15.8,11.8-1.8.3-3.7.8-5.5,1.1-3.4.6-5.8-.8-8.1-3.3-3.2-3.5-1.6-7.4-1.5-11,0-2.3,5.6-5.3,8.4-5.4,2.6,0,5.2.3,6.6-2.9,1.2-2.8.6-4.1-2.5-4-3.6.1-7-.4-10-2.3-5.8-3.6-10-8.4-10.8-15.4-.3-2.9-.5-5.9-1.3-8.7-.3-1-1.9-2-3.1-2.4-1.4-.5-2.2,0-2.7,2-1.6,5.9-3.3,11.8-5.7,17.3-2.2,4.9-6.8,7.6-11.7,9.6-7.1,2.9-13.2,0-18.2-4.2-3.2-2.8-5.3-7.2-7.1-11.3-2.1-4.7-2.7-9.9-2.5-15.1.1-2.7-1.4-5.5-1-8.1,1.3-8.5,1-17.4,5.7-25.1,4.2-7,10.1-11.6,18.5-11.4,8.2.2,13.7,5.3,17.2,12.1,2,3.9,2.5,8.5,3.8,12.8.5,1.7.8,4,2.1,4.9,2.2,1.6,4.9-.4,4.8-3.4,0-5.2,1.4-10.1,3.5-14.8,2.7-5.9,7.5-9.9,13.7-11.5,2.3-.6,5.3.2,7.7,1.1,3.3,1.3,6.1,1,9.5,0,4.3-1.3,9.6,1,9.7,7,.2,11.5,0,22.9,0,34.4ZM300.1,206.9c-1.1-4.7-1.8-9.5-3.4-13.9-1.4-4.1-6-4.6-9.3-1.6-2.4,2.2-2.9,5.1-3.7,8.1-1.8,7.3-1.2,14.3,1.8,20.9,1,2.2,3.2,4.5,6.7,4,2.8-.4,4.1-2.1,4.7-4.4,1.1-4.2,2-8.5,3-13.1ZM333.1,206.7c.3,0,.6.1.8.2,0,1.7-.2,3.5,0,5.2.2,1.7.4,3.6,1.2,5.1,1.4,2.4,3,4.9,5,6.8,1.7,1.6,6.5-.7,7.6-4,1.2-4,2-8.3,2.3-12.5.2-2.9-.6-5.8-1.1-8.7-.3-1.8-.5-3.9-1.5-5.3-1.3-1.6-3.3-3.3-5.2-3.7-3.1-.7-5,2.1-5.9,4.4-1.5,4-2.2,8.4-3.3,12.6Z"/><path d="M81.2,194c0-13.7.2-27.5,0-41.2,0-4.8,3.5-8.8,8.7-8.5,6.1.4,12.3-.1,18.5.1,9.6.4,16.5,5.7,19.4,15,.6,2,.4,5.6,4.6,4.8,1.6-.3,2.3-.5,2.3-2.3-.1-3.1,0-6.3,0-9.4,0-2.8.7-5.3,3.1-6.9,3.1-2,6.5-1.9,9.2.3,1.5,1.2,2.5,3.7,2.7,5.7.4,4.4,0,8.9.1,13.3,0,3.8,4,6.6,7.2,4.9,5.1-2.7,9.2-.2,13,2.5,3.7,2.7,5.7,6.6,6.6,11.4,1,5.5,2.2,10.9,2.2,16.5,0,2.6,1.1,5.2,1,7.8-.2,9.8-.6,19.7-1.2,29.5-.2,3.8-3.2,6.9-8.2,6.5-3.8-.3-6.8-2.8-6.8-7.2,0-12.3,0-24.7,0-37,0-3.1-.8-5.9-3.2-8.3-1.5-1.5-3.3-2.7-5-1.8-1.8,1-3.8,2.8-4.4,4.7-1,3.4-1.2,7.1-1.3,10.6-.2,10.4-.2,20.8,0,31.1,0,4.3-3.6,7.9-7.6,7.9-3.9,0-7.6-3.6-7.6-7.9.2-15.7,0-31.4,0-47,0-1.2.7-3.2-1.7-2.9-1.5.2-3.5-1.2-4.3,2.1-2.2,9-8.1,15-17.2,17.4-2.5.7-5.4.3-8.1,0-4.6-.4-8.4,3.5-8.3,8.2.3,7.6.1,15.1,0,22.7,0,2.7-.8,5-3.7,6.3-5.4,2.4-10.1-.5-10.1-6.4,0-14.2,0-28.3,0-42.5ZM94.7,175c.1,0,.3,0,.4,0,0,1.6,0,3.2,0,4.9.2,2.9,1,5.1,4.1,6.4,3.5,1.5,6.7,1.3,10-.3,3.6-1.7,7.8-8.6,6.7-11.6-1.6-4.5-3.4-8.9-8.8-10.7-4.6-1.6-9.2-.8-11,3.6-1,2.3-.9,5.1-1.4,7.7Z"/><path d="M369.9,207c0-9.6.2-19.3,0-28.9-.2-7.2,6.6-9.5,11.9-7.5,3.6,1.3,7.6,1.1,11.1-1,1.9-1.2,3-.9,4.5.5,2.6,2.3,4.6,4.6,4,8.5-.1.9,1.3,2.6,2.2,2.8,1,.2,2.6-.8,3.3-1.8,3.1-4.8,7.2-7.9,12.7-9.7,9.9-3.2,16.8,1.4,22.7,8.3,2.9,3.3,4,7.9,4.1,12.2.2,15.4,0,30.7.1,46.1,0,6.1-6.2,8.9-10.8,7-2.8-1.1-6.9-1.2-9.7,0-9.8,3.8-17.8.2-21.3-10.1-1.4-4-2.6-8-2.2-12.3.8-7.3,2.4-14.6,9.1-18.9,2.8-1.8,6.6-2.4,10-3.2,1.9-.4,4.3.5,5.7-.4,1.7-1,4-3.8,3.6-4.9-.7-2-3.1-3.9-5.1-4.9-.8-.4-2.8,1.3-4.2,2.2-2.9,1.6-5.6,3.8-9.2,3.4-2.7-.3-4.9-1-6.5-3.6-.7-1.1-2.8-1.4-4.2-2.2-1.5-.8-2.6-.5-4,.6-2.8,2.2-6.2,3.8-9.1,5.9-2.7,1.9-3.3,5.1-3.4,8.1-.1,11-.2,22.1,0,33.1,0,4.4-3.6,7.9-7.6,7.9-3.9,0-7.7-3.4-7.6-7.9.2-9.7,0-19.5,0-29.2ZM418.6,220.6c0,4.2,1.9,6.1,5.9,6,2.8,0,6.8-4.8,6.8-8.1,0-2.4-3.3-5.9-5.4-5.8-3.3.1-7.4,4.5-7.4,7.9Z"/><path d="M0,55.3c0-13.9.1-27.9,0-41.8C0,9,3.7,5.1,8.1,5.4c5.8.3,11.7,0,17.5.1,6.6.2,12.7,2,17.1,7.3,2.8,3.4,4.3,7.5,4.9,12,.3,2.5,1.1,5,1.1,7.4,0,5.6-1.4,10.9-3.9,16-2,4.2-2,7.7.8,11.8,1.9,2.7,2.7,6.3,3,9.7.5,4.7.2,9.5.1,14.3-.1,8.7-7.7,17.9-15.9,20.1-7.4,2-14.7.6-22.1,1-2.1.1-4.4-.4-6.5-.9-3.4-.8-4.2-3.6-4.2-6.6,0-14.1,0-28.1,0-42.2ZM15,74.9c0,0,.1,0,.2,0,0,1.6-.2,3.3,0,4.9.4,2.4,1.3,4.3,3.7,5.8,3.9,2.4,11.3-.3,13.3-4.1,1.3-2.5,2.5-5.5,2.3-8.2-.2-3.1-2.5-5.6-5-7.7-3.8-3.3-11.8-3.6-14,2.7-.7,2-.4,4.5-.6,6.7ZM23.2,44.8c5.8,0,11.3-5.5,10.4-11-.7-4.1-3.6-7-7.4-8.8-4.9-2.3-9.4-.8-10.8,4.2-.7,2.3,0,4.9-.3,7.4-.5,4.7,3.6,8.8,8.1,8.2Z"/><path d="M291.1,73.3c0-5.3-.1-10.6,0-15.9.1-4.1-2.7-6.7-4.8-9.6-1.2-1.7-7.9-.2-10.5,1.2-5,2.7-6,6.7-5.7,11.9.3,5.1.1,10.2,0,15.2,0,2.8,1.1,5,3,7,2.4,2.6,4.9,5.1,6.7,8,2.8,4.6.6,11.7-4.1,13.5-3.9,1.4-8,.6-11.5-1.5-6.1-3.7-8-9.5-8-16.3,0-8.9-.3-17.8.1-26.6.3-5.1-1.8-8.9-4.7-12.2-3.1-3.6-3-12-.1-15.4,3.1-3.5,5.4-7.4,4.8-12.5-.6-4.6,3.6-7.7,7-7.6,3.2,0,7.1,3,6.9,7.8,0,2.2.3,4.6,1.1,6.7,1.7,4.3,10,7.7,14.3,6.2,1.6-.6,5.3-7.2,5.4-9.6.2-2.3.1-4.7.9-6.8,1.3-3.4,4.7-5.1,7.4-4.4,3.5,1,5.5,3.6,5.6,7.4,0,2.1-.3,4.6.6,6.3,1.3,2.3,3.8,3.9,5.7,5.8,1.4,1.4,3.6,2.9,3.8,4.5.3,3.3,0,6.9-1.2,9.9-.7,1.8-3.3,3.2-5.3,4.1-2.6,1.2-3.5,3.4-3.6,5.7-.2,7-.3,14.1,0,21.1,0,1.9,1.4,3.9,2.6,5.5,2.2,2.9,5.2,5.4,7.1,8.5,2.7,4.3.3,11.5-4.2,13.2-3.9,1.5-8,.6-11.5-1.4-6.2-3.5-7.9-9.5-8-16.2,0-4.5,0-9.1,0-13.6Z"/><path d="M702.4,169.5c4.5.4,8,4.3,8.4,8.7.4,5.1,1.4,10.1,2.4,15.2,0,.5,1.9,1.1,2.6.8,1.1-.4,2.7-1.3,2.9-2.3,1-5.1,1.2-10.5,2.7-15.4.7-2.5,3.3-5.3,5.7-6.3,3.5-1.4,7.4.9,9.1,4.1.8,1.5.9,3.4,1.3,5.1.7,3.1,1.5,6.2,2,9.4.3,1.6-.2,3.3.4,4.8.5,1.2,1.8,2.4,3,2.9,1.5.6,2.6,0,2.8-2.2.4-4.4,1.2-8.9,2.3-13.2.8-3.5,1.3-7.2,4.7-9.6,2.4-1.8,5.8-2.3,8.8,0,2.2,1.7,3.3,4.2,2.6,7.1-.6,2.6-1.6,5.1-2.1,7.8-.6,3.2-.7,6.5-1.3,9.7-.5,2.7-1.4,5.4-2.1,8.1-.5,2.2-1,4.5-1.3,6.7-.8,4.8-1.4,9.7-2.4,14.5-.9,4.6-1.8,9.4-3.5,13.8-2.3,5.8-9,6.8-13.5,2.6-2.7-2.5-3.5-5.5-3.9-9-.3-2.6-.6-5.3-1.4-7.7-.5-1.4-1.1-3.4-3.7-3-2.5.4-2.6,2.4-2.9,3.9-.7,3.5-.8,7.1-1.3,10.6-.6,3.6-2.9,6.2-6.2,7.2-2.8.8-5.7.9-8.2-1.8-2.6-2.8-3.6-5.9-4.1-9.5-.7-4.8-2.2-9.5-3.2-14.2-.6-2.9-.8-5.8-1.4-8.7-1.1-5.3-2.3-10.5-3.3-15.8-.5-2.6-.8-5.2-1.3-7.7-.6-3.1-1.7-6.2-1.9-9.4,0-1.7,1.1-3.8,2.3-5,1.2-1.2,3.4-1.3,5.1-2Z"/><path d="M932.1,55.1c0-14.3.1-28.5,0-42.8,0-4.5,3.4-8.2,8.8-8.2,5.6,0,9,3.8,8.9,8.1-.2,8.6,0,17.3,0,25.9,0,1,0,2.3.6,3,.8,1.1,1.6,2.3,2.9-.2,2.2-4.1,4.1-8.8,9-10.6,4-1.4,8.2-1.4,12.1.5,2.1,1.1,2.9,6.6,1.4,9.3-2.5,4.8-5.2,9.6-7.5,14.5-.8,1.8-1.4,4.3-.9,6.1,1.9,6.8,4.4,13.4,6.5,20.2,1.4,4.3,2.5,8.6,3.7,12.9.5,1.6,1.1,3.2,1.1,4.8.2,4.8-2.6,7.2-7.4,7.5-4.2.2-7.8-.8-10.1-4.3-1.3-1.9-1.7-4.4-2.4-6.7-1.2-4-2.1-8.1-3.5-12-.4-1.1-2-1.8-3.1-2.6-.5.9-1.3,1.7-1.4,2.6-.5,4.9-1.1,9.7-1,14.6,0,4.7-3.5,8.4-8.9,8.4-5.3,0-8.9-3.7-8.8-8.5.2-14.3,0-28.5,0-42.8Z" style="fill:#e93223;"/><path d="M662.5,144.5c5.2-.8,8.8,1.3,10.8,5.9.7,1.7,1.1,3.6,1.5,5.4.9,4.5,1.4,9.1,2.4,13.5,1.4,6.2,3.1,12.4,4.5,18.7.6,2.7.8,5.6,1.3,8.4.3,1.9.7,3.9,1.2,5.8,1.1,4.6,2.4,9.2,3.4,13.8.9,4.5,1.5,9,2.4,13.5.5,2.7,1.3,5.4,2.1,8,.7,2.3-2.9,6.1-6,6.5-5.2.6-9.3-2.5-10-7.7-.8-5.6-4.1-8.5-9.8-8.5-1.8,0-3.7.2-5.5,0-3.7-.6-6.5.7-8.6,3.7-.7,1.1-1.6,2.4-1.5,3.6.2,5.8-6.6,11.7-13.2,7.8-2-1.2-3.7-5.3-3-7.5.8-2.8,1.5-5.6,2.2-8.4,1.5-6.4,3-12.9,4.5-19.4.5-2.2.8-4.5,1.3-6.8,1.1-5.2,2.3-10.3,3.4-15.5.6-2.8.8-5.6,1.3-8.4.3-2.1.8-4.1,1.2-6.1,1.1-5.2,1.9-10.4,3.6-15.4.8-2.5.4-5.5,2.9-7.8,2.4-2.1,4.5-3.9,7.7-3ZM669.5,203.6c-1.3-5-2.9-9.9-3.8-15-.4-2.5-1.5-3.1-3.2-2.4-1.1.4-2.2,1.9-2.7,3.2-1,2.8-1.5,5.8-2.2,8.7-.5,2.3-1.4,4.7-1.2,7,.3,3.4,4,5.7,7.4,5.3,2.5-.3,5.1-3.7,5.6-6.8Z"/><path d="M896.3,194.2c0,13.8,0,27.7,0,41.5,0,7.2-5.6,9.6-10.6,8-4.2-1.3-8.1-1.2-11.6.5-4.6,2.2-8-.2-11.4-2.1-4.4-2.4-7.2-6.6-8.9-11.2-1.5-4-2.4-8.3-2.6-12.5-.4-7-.2-14,0-21.1.1-8,2.1-15.3,7.4-21.8,3.1-3.8,7.1-5.3,11.4-6.8.9-.3,2.2,0,3.1.4,4.4,1.9,8.2-.4,8.3-5.1,0-3.9.2-7.8,0-11.7-.3-4.5,3.7-8,7.5-8.1,4,0,7.8,3.5,7.8,8.1-.2,13.9,0,27.9,0,41.8ZM865.4,205.7c.7,4.9,1.1,8.6,1.9,12.3.6,2.7,1.7,5.7,5,6.2,3.5.5,5.6-1.4,6.6-4.7.5-1.6.7-3.2,1.2-4.8,2.3-7.7,1.4-15-2.2-22.2-1.1-2.3-3-3.2-4.9-2.8-1.7.4-3.9,1.8-4.4,3.3-1.5,4.4-2.3,9-3.2,12.7Z"/><path d="M779.3,73.8c0,7.9,0,15.8,0,23.7,0,6.8-5.7,11.2-12.1,8.5-4.1-1.8-7.5-.5-11,.8-4.5,1.7-12.6-.1-16.2-3-5.6-4.5-6.9-10.8-7.3-17.4-.4-6.4.4-12.6,3.5-18.1,3.2-5.6,7.9-9.6,15-9.7,2.6,0,5.7,1.3,7.9-1.4.9-1,2.2-1.9.5-3.4-1.5-1.3-2.7-3.1-4.9-1.3-3.6,3-7.6,4.3-12.3,4-5.6-.3-8.6-4.8-7.7-10.3.9-5.5,4-9.1,7.5-12.9,3-3.2,7-3.9,10.8-4.7,4.9-1,10.1-.4,14.5,2.2,5,3,8.9,7.3,10.5,13.1,2.6,9,.6,18.1,1.2,27.2,0,.9,0,1.7,0,2.6ZM751.4,81.9c0,2.2,2.9,5.3,4.4,4.3,2.4-1.6,4.3-4.2,5.6-6.8.3-.5-2.3-3.3-4-4-1.6-.7-6.1,4.5-6.1,6.5Z" style="fill:#e93223;"/><path d="M882.3,67.9c0-9.8.2-19.7,0-29.5-.2-5.3,3.6-9.4,8.8-8.7,2.1.3,4.1.9,6.2,1,1.9.1,4.3.6,5.7-.3,7.7-5.2,19.5.5,22.4,8.3,1.2,3.4,1.8,7.1,2.4,10.7,2.7,16.2.4,32.4,1.2,48.6.2,4.6-3.3,8.5-9.2,8.4-4.8,0-8.6-3.7-8.5-8.5.3-11.7,0-23.3,0-35,0-4-1-7.6-4.3-10-.6-.5-2.2-.5-2.8,0-3.1,2.1-4.3,5.5-4.3,9,0,12.1-.2,24.2,0,36.3,0,4.4-3.2,8.3-9.1,8.2-5,0-8.7-3.7-8.6-8.4.2-10,0-20.1,0-30.2Z" style="fill:#e93223;"/><path d="M390.8,55.1c0-13.9.1-27.9,0-41.8,0-4.4,3.7-7.9,7.7-7.9,3.8,0,7.8,3.5,7.5,8-.3,4.3,0,8.6,0,13,0,3.2,4,6.1,6.6,4.6,4.8-2.7,9.2-.6,12.9,1.8,3.9,2.6,6.1,6.7,7.3,11.7,4.1,17.9,1.4,35.9,2.1,53.8.1,3.7-3.1,6.9-7.9,6.7-3.9-.1-7.1-3.1-7.1-7.3,0-12.3,0-24.7,0-37,0-3-.8-5.9-3.1-8.3-1.5-1.5-3.3-2.7-5-1.8-1.8,1-3.8,2.8-4.4,4.7-1,3.5-1.2,7.3-1.3,10.9-.2,10.3-.2,20.5,0,30.8,0,4.5-3.7,7.9-7.6,7.9-3.9,0-7.6-3.4-7.6-7.9.2-14.1,0-28.1,0-42.2Z"/><path d="M810.5,213.3c0,7.5,0,14.9,0,22.4,0,6.8-4.3,9.2-11,7.6-4-1-8.8-.3-12.8,1.1-5.1,1.8-8.8-.2-12.5-2.6-4.3-2.8-6.1-7.3-6.7-12.3-.3-2.8-1.3-5.7-1-8.4.6-7.4,2.3-14.6,9-18.9,3.1-2,6.7-3.8,10.9-3.4,1.8.2,4,0,5.5-.8,1.5-.9,3.4-3.5,3-4.3-.9-2-2.9-3.9-4.9-4.9-.9-.5-2.9,1.1-4.3,1.9-2.9,1.7-5.5,3.7-9.2,3.6-6.3-.2-8.7-4.7-7-10.9,2.4-8.7,8.9-12.1,16.3-14.5,4.1-1.3,8.4.2,12.2,2.2,5.8,3.1,10.5,7.4,11.2,14.3.9,9.2,1.2,18.5,1.8,27.8-.2,0-.4,0-.6,0ZM782.6,220.6c0,4.1,1.9,6.1,5.9,6,2.8,0,6.8-4.8,6.8-8.1,0-2.1-3.1-5.7-5-5.8-3.3-.2-7.7,4.3-7.7,7.9Z"/><path d="M440.6,66.4c0-2.4,0-4.8,0-7.1.1-7.5,2.4-14.1,6.4-20.5,3.8-6.1,9.4-8.8,15.6-8.7,6.1,0,11.5,2.6,15.4,8.5,4.6,7,6.6,14.3,6.7,22.4,0,2,.8,4.1,1.1,6.1.6,4.2-3.6,8.2-7.8,7.9-5-.3-10-.1-14.9,0-1.2,0-2.6.5-3.4,1.3-1.5,1.4-4.1,2.7-2.4,5.5,2.2,3.6,7,5.7,9.7,4.4,1.3-.7,2.5-1.5,3.6-2.4,4.1-3.1,8.2-2.2,10.5,2.5.6,1.3,1.4,2.6,1.9,3.9.3.9.5,2.2.1,3-3.8,8.5-10.5,13.2-19.7,12.9-7.5-.3-13.4-4.2-17.3-10.9-2.4-4-3.8-8.3-4.4-12.8-.7-5.2-1.2-10.5-1.7-15.8.2,0,.4,0,.5,0ZM462.5,59.9c1.8,0,5.8-3.1,5.9-4.6,0-1.9-3.9-5.9-5.8-5.8-1.8,0-5.6,3.7-5.7,5.6-.1,1.4,3.8,4.8,5.7,4.8Z"/><path d="M247.5,68.3c-.5,5.3-.4,10.7-1.8,15.8-1.7,6.3-3.5,12.8-9.2,17-4.3,3.2-9.1,5.9-14.5,4.9-4.8-.9-9.1-3.2-12.6-7.6-5.7-7.1-7.5-15-7.6-23.7-.1-5.8-.8-11.7-1-17.5,0-1.3.8-2.7,1.3-4,.7-2,1.4-4.1,2.1-6.1,2.5-8,6.9-13.9,15.4-16.4,6.5-1.9,11.9-.4,16.7,3.9,3.5,3.1,5.7,6.9,7.5,11.4,3.1,7.3,3.2,14.7,3.7,22.3ZM232.6,69.2c-.7-5-.9-8.9-2-12.6-.7-2.2-2.4-4.8-4.3-5.8-2.6-1.3-5.6,0-7.1,2.7-1.2,2.1-1.7,4.6-2.5,6.9-2.4,7.2-1.3,14.2,1.6,20.8,1,2.3,3.2,4.4,6.7,4.1,2.9-.3,4.2-2,4.8-4.3,1.1-4.2,2-8.5,2.8-11.9Z"/><path d="M230.1,207.2c-.5,5.3-.5,10.7-1.7,15.8-1.7,6.7-4.1,13.1-9.8,17.8-6.4,5.2-15.9,5.6-22.3.7-6.1-4.7-9.6-10.6-10.6-18.2-.4-3.1-.7-6.3-1.2-9.4-.1-.8-1-1.5-1.4-2.4-.4-.8-1-1.7-.8-2.4.4-2.5-1.6-5.8,2.1-7.5.5-.2.2-2,.2-3.1-.2-8.5,2.4-16.3,7.7-22.6,4-4.8,9.8-8,16.4-7,9.2,1.4,14.4,7.4,17.9,16,3,7.4,3.2,14.7,3.7,22.3ZM215.5,206.8c-1.1-4.7-1.8-9.4-3.4-13.9-1.3-3.9-6.1-4.6-9.1-1.8-2.5,2.3-3.1,5.2-3.9,8.4-1.8,7.3-1.1,14.3,1.9,20.9,1,2.2,3.2,4.5,6.7,4,2.8-.4,4.1-2.1,4.7-4.4,1.1-4.2,2-8.5,3-13.1Z"/><path d="M554.3,260.3c-1.2-5.4,3.3-7.8,6.9-10.4,2.8-2,4.5-4.3,4.7-7.7.2-4.5-.8-8.7-2.1-13-1.3-4.4-1.6-9-2.5-13.5-.9-4.3-2.2-8.6-3.3-12.9-.6-2.4-.9-4.9-1.3-7.4-.4-2.2-.8-4.5-1.4-6.7-1-4.1-2.3-8.1-3.2-12.2-.6-2.7,2.8-6.2,6-6.7,5.5-.8,9.9,3,10.3,8.5.2,3.2,1.4,6.2,2.1,9.4.5,2.7,1.1,5.3,1.3,8,.2,3.2,2.5,1.6,3.9,1.7.6,0,1.7-1.2,1.9-2,1.3-5.7,2.5-11.4,3.3-17.1.3-2.4.8-4.2,2.6-5.9,2.5-2.3,6.8-3.6,8.9-2.3,3.7,2.2,4.1,4.6,2.8,9.5-1.2,4.4-1.7,9-2.5,13.5-.3,1.7-.8,3.4-1.1,5.2-1.6,7.2-3.1,14.4-4.7,21.6-1.1,4.8-2.2,9.6-3.4,14.4-1.5,5.8-3,11.6-4.6,17.3-.4,1.4-.8,2.8-1,4.2-.5,5.3-4.7,7.9-7.9,11.2-2.2,2.3-9.6,3.6-12.1,2.3-3.8-1.9-3.6-5.4-3.5-9.2Z"/><path d="M118.9,100.8c-.9-3.4-1.9-6.8-2.7-10.2-.5-2.1-.9-4.3-1.3-6.4-1.2-6.1-2.2-12.3-3.5-18.3-1.3-5.7-3-11.3-4.4-17-.7-2.7-.6-5.7-1.4-8.3-.7-2.2-1.3-3.9,0-6.2,2.1-3.6,8.5-4.8,11.5-2,2.3,2.2,4,4.3,3.8,8-.2,2.7,1.4,5.5,2,8.4.6,2.8,1,5.6,1.3,8.4.4,2.9,2.5,1.4,3.8,1.5.6,0,1.8-1.1,2-1.9,1.3-5.8,2.7-11.6,3.3-17.4.3-3,1.7-4.6,3.6-6.4,1.9-1.9,6.3-2.7,8.2-1.4,3.6,2.5,4.2,5.1,2.8,9-.9,2.3-1,4.9-1.6,7.3-1.1,4.6-2.3,9.2-3.3,13.9-.9,4.5-1.6,9-2.5,13.5-.7,3.7-1.6,7.3-2.5,10.9-.6,2.5-1.5,4.9-2.1,7.4-1.2,4.9-2.3,9.9-3.5,14.8-1.1,4.2-1.7,8.6-3.6,12.5-2.4,4.9-6.4,8.5-12.1,9.7-2,.4-4,2.3-6.1,0-1.1-1.2-2.4-2.2-3.2-3.6-1.8-3.2-.6-10,2-12.4,1.7-1.6,3.7-2.8,5.4-4.3,2.9-2.4,4.1-5.6,4.2-9.5Z"/><path d="M101.4,67.5c-.6,5.8-.5,11.2-1.8,16.3-2.1,8.8-5.5,16.8-14.9,20.7-6.3,2.6-11.8,1.8-17.1-2-6.2-4.5-9.7-10.6-10.8-18.1-.4-3.2-.8-6.5-1.2-9.7-.3-2.7-1.4-5.5-1-8.1,1.4-8.5,1-17.3,5.6-25.1,4.2-7.1,10-11.7,18.3-11.5,8.3.1,14.2,5.1,17.6,12.4,1.8,4,2.7,8.5,3.6,12.8.9,4.2,1.2,8.6,1.7,12.5ZM86.5,69c-.7-4.8-.9-8.7-2-12.3-.7-2.3-2.5-4.8-4.5-5.9-2.5-1.4-5.4.1-6.8,2.7-1.2,2.1-1.7,4.6-2.5,6.9-2.4,7-1.3,14,1.4,20.6.9,2.2,2.7,4.5,6,4.5,3.1,0,4.8-1.5,5.5-4.2,1.1-4.3,2-8.7,2.9-12.2Z"/><path d="M166.3,68.4c1,4,1.8,8.1,3.1,12,.8,2.6,2.6,4.6,5.6,5,3.3.5,4.6-1.5,6.4-4,1.6-2.3,4.8-4.6,7.3-4.7,3.5-.1,6.5,2.9,8.3,6,.6,1.1-.7,3.1-.9,4.7-.4,5-2.9,9.2-6.2,12.3-2.6,2.4-5.3,5.8-9.9,5.5-1.7-.1-3.5,1.2-5.1,1-6.1-1-11.3-2.8-15.1-8.6-4.6-7-6.7-14.3-6.7-22.5,0-2.8-1.5-5.7-1-8.4,1.5-8,.3-16.4,4.5-23.9,3.2-5.8,7.3-10.1,14.1-12,7.1-2,12.4,0,17.8,4.6,5.4,4.7,7.8,10.5,8.7,17.2.5,3.8-2.9,5.6-5.3,7-2,1.1-5.5,1.4-7.5-1.5-1.1-1.6-2.5-3.1-3.6-4.8-2.8-4.3-7.9-4-10.4.5-2.6,4.5-3.5,9.4-4,14.7Z"/><path d="M682.8,74.9c0-5.1-.3-10.2,0-15.2.4-4.5-2.3-7.4-4.5-10.5-3.5-4.8-3.5-13.3.2-18.2,2.7-3.6,5.1-7.3,4.3-12.2-.7-4,3.6-7.9,8.3-7.9,4.3,0,8.4,3.9,8.1,7.9-.2,2-.4,4.5.5,6,1.5,2.3,4,4,6.1,6,.9.9,2.1,1.7,2.6,2.8,1.9,4.3,2.1,8.8,0,12.9-1.1,2.1-3.4,3.9-5.6,5.1-2.6,1.4-3.5,3.5-3.6,5.9-.2,6.2-.3,12.3,0,18.5.1,2,1.6,4.1,2.8,5.8,2.1,2.8,5.3,5,6.6,8.1,1.9,4.4,1.7,9.4-.8,13.8-.7,1.2-2.5,2.3-3.9,2.4-6.2.5-12.7.7-17.1-4.7-2.1-2.6-3.6-6.3-4-9.6-.6-5.6-.2-11.2-.2-16.9Z" style="fill:#e93223;"/><path d="M238.9,212.1c0-4.3-.4-8.7.1-13,.6-5.1-1.8-8.9-4.7-12.2-3.1-3.6-3-12-.1-15.3,3-3.5,5.5-7.4,4.8-12.5-.6-4.5,3.5-7.6,6.9-7.7,3.2,0,7.2,3.2,7,7.7-.1,2-.4,4.4.6,6,1.4,2.3,3.8,3.9,5.7,5.9,1.2,1.2,2.7,2.2,3.5,3.6,2.3,4.3.5,10.4-3.5,12.9-4.2,2.6-6.9,5.8-6.4,11.3.5,5.4.2,10.8,0,16.2,0,3,1.1,5.2,3.1,7.3,2.3,2.4,4.9,4.9,6.5,7.8,2,3.6,1.3,9.4-1.1,11.9-2.1,2.3-7.3,2.5-11,1.4-9-2.6-11-9.6-11.3-17.6-.2-4.5,0-9.1,0-13.6Z"/><path d="M360.6,73.2c0-4.3-.4-8.7.1-13,.6-4.9-1.8-8.5-4.4-12.1-3.7-5-3.7-10.9,0-16,2.6-3.5,4.9-7.2,4.4-12.1-.2-2,1.2-4.8,2.8-6.3,2.3-2.2,5.7-2.1,8.1,0,1.5,1.4,2.3,3.9,2.8,6,.5,2-.3,4.6.7,6.3,1.4,2.3,4,4,6,6,1.3,1.3,3.4,2.7,3.6,4.3.3,2.9.2,6.3-.9,9-.9,2.1-3.3,4-5.4,5.1-2.6,1.4-3.7,3.4-3.7,6-.1,6.9-.3,13.8,0,20.7,0,2,1.5,4.1,2.7,5.8,2.1,2.9,4.9,5.3,6.9,8.3,1.7,2.5.7,9.7-1.3,11.7-2.2,2.2-6.8,2.7-11,1.4-9.2-2.7-11.1-9.7-11.4-17.9-.1-4.4,0-8.9,0-13.3Z"/><path d="M847.8,178c-.5,2.9-.2,6.3-1.7,8.5-1.6,2.4-4.8,3.8-7.5,5.3-4.4,2.5-7.1,6-7.2,11-.2,11.1-.2,22.3,0,33.4,0,4.3-3.6,7.8-7.7,7.8-3.8,0-7.5-3.5-7.5-7.7.1-19.6,0-39.2,0-58.7,0-5.7,5.9-9.8,11.1-7.5,4.1,1.8,8.1,1.4,11.8-.7,2-1.1,3.2-.7,4.5.6,2.1,2.2,5.2,4,4.1,7.9Z"/><path d="M729.4,68.2c0,9.8,0,19.7,0,29.5,0,3-.5,5.8-3.3,7.4-3.5,2-7.3,1.9-10.4-.5-1.4-1.1-2.5-3.6-2.5-5.5-.2-20.7-.1-41.5-.1-62.2,0-3.8,3.2-7.4,8.6-7.3,4.2.1,7.8,3.5,7.8,7.5,0,10.4,0,20.7,0,31.1Z" style="fill:#e93223;"/><path d="M731.1,13.1c-.6,2.4-.8,4.9-1.7,7.1-1.1,2.7-2.8,5-6.3,5-4,0-7.5-.2-9.5-4.6-2.8-6-2.2-14.2,1.8-18.1,4.3-4.2,11.4-3.1,13.9,2.6,1.1,2.4,1.2,5.3,1.8,8Z" style="fill:#e93324;"/><path d="M300.1,206.9c-1.1,4.6-1.9,8.9-3,13.1-.6,2.4-1.9,4-4.7,4.4-3.5.5-5.7-1.8-6.7-4-3-6.6-3.7-13.6-1.8-20.9.8-3,1.3-5.8,3.7-8.1,3.3-3,7.9-2.5,9.3,1.6,1.5,4.5,2.3,9.3,3.4,13.9Z" style="fill:#fefefe;"/><path d="M333.1,206.7c1.1-4.2,1.8-8.5,3.3-12.6.9-2.3,2.8-5.1,5.9-4.4,1.9.4,3.9,2.1,5.2,3.7,1.1,1.4,1.2,3.5,1.5,5.3.5,2.9,1.3,5.9,1.1,8.7-.3,4.2-1.1,8.5-2.3,12.5-1,3.3-5.8,5.6-7.6,4-2-1.9-3.6-4.3-5-6.8-.8-1.5-1-3.4-1.2-5.1-.2-1.7,0-3.5,0-5.2-.3,0-.6-.1-.8-.2Z" style="fill:#fdfdfd;"/><path d="M94.7,175c.4-2.6.4-5.3,1.4-7.7,1.8-4.4,6.4-5.2,11-3.6,5.4,1.9,7.2,6.2,8.8,10.7,1.1,3-3.1,10-6.7,11.6-3.3,1.5-6.5,1.8-10,.3-3-1.3-3.9-3.5-4.1-6.4,0-1.6,0-3.2,0-4.9-.1,0-.3,0-.4,0Z" style="fill:#fdfdfd;"/><path d="M15,74.9c.2-2.2-.1-4.6.6-6.7,2.2-6.3,10.1-5.9,14-2.7,2.5,2.1,4.8,4.6,5,7.7.1,2.7-1,5.7-2.3,8.2-2,3.8-9.4,6.5-13.3,4.1-2.4-1.5-3.3-3.4-3.7-5.8-.3-1.6,0-3.2,0-4.9,0,0-.1,0-.2,0Z" style="fill:#fefefe;"/><path d="M865.4,205.7c.9-3.7,1.7-8.3,3.2-12.7.5-1.5,2.7-2.9,4.4-3.3,1.9-.4,3.8.5,4.9,2.8,3.6,7.2,4.5,14.5,2.2,22.2-.5,1.6-.8,3.2-1.2,4.8-.9,3.3-3.1,5.3-6.6,4.7-3.2-.5-4.3-3.5-5-6.2-.8-3.7-1.2-7.5-1.9-12.3Z" style="fill:#fdfdfd;"/><path d="M782.6,220.6c0-3.5,4.4-8,7.7-7.9,1.9,0,5.1,3.7,5,5.8,0,3.3-4,8-6.8,8.1-4,0-5.9-1.9-5.9-6Z" style="fill:#fcfcfc;"/><path d="M232.6,69.2c-.8,3.4-1.7,7.7-2.8,11.9-.6,2.4-1.9,4-4.8,4.3-3.5.4-5.7-1.8-6.7-4.1-2.9-6.6-4-13.7-1.6-20.8.8-2.3,1.3-4.8,2.5-6.9,1.5-2.7,4.5-4.1,7.1-2.7,2,1,3.7,3.6,4.3,5.8,1.1,3.7,1.3,7.7,2,12.6Z" style="fill:#fefefe;"/><path d="M215.5,206.8c-1,4.6-1.9,8.9-3,13.1-.6,2.3-1.9,4-4.7,4.4-3.5.5-5.7-1.7-6.7-4-3-6.6-3.7-13.6-1.9-20.9.8-3.2,1.4-6.1,3.9-8.4,3-2.8,7.8-2.2,9.1,1.8,1.5,4.5,2.3,9.3,3.4,13.9Z" style="fill:#fdfdfd;"/><path d="M86.5,69c-.8,3.5-1.7,7.9-2.9,12.2-.7,2.7-2.4,4.2-5.5,4.2-3.3,0-5.1-2.3-6-4.5-2.7-6.6-3.8-13.5-1.4-20.6.8-2.3,1.4-4.8,2.5-6.9,1.4-2.5,4.3-4.1,6.8-2.7,2,1.1,3.8,3.6,4.5,5.9,1.1,3.6,1.3,7.4,2,12.3Z" style="fill:#fdfdfd;"/></svg>