<?xml version="1.0" encoding="UTF-8"?><svg id="a" xmlns="http://www.w3.org/2000/svg" xmlns:xlink="http://www.w3.org/1999/xlink" viewBox="0 0 796.5 401.9"><path d="M40.8,46.7h56c17.4,0,22,6.7,22,13.5v.9c0,7.4-6.3,10.8-10.2,11.7,5.3,1.3,13.7,4.8,13.7,15.3v1c0,9.4-5.7,17.2-25.1,17.2h-56.3v-59.5ZM63.5,60.2v8.4h26.4c4.7,0,6.1-1.9,6.1-4.2v-.2c0-2.3-1.4-4.1-6.1-4.1h-26.4ZM63.5,82v10.2h27.8c5.9,0,7-2.8,7-5.1v-.2c0-2.6-1.2-4.9-7-4.9h-27.8Z" style="fill:none; stroke:#000;"/><path d="M149.3,107.4c-27.5,0-32.6-13-32.6-22.3v-1.3c0-9.1,5-21.8,32.6-21.8h6.1c28.6,0,32.5,12.8,32.5,21.8v1.4c0,9.2-3.6,22.2-32.6,22.2h-5.9ZM152.3,74.1c-10.7,0-13.5,5.4-13.5,10.1v.3c0,4.7,2.7,10.6,13.5,10.6h0c10.6,0,13.4-6.2,13.4-10.6v-.3c0-4.7-2.8-10.1-13.4-10.1h0Z" style="fill:none; stroke:#000;"/><path d="M187.7,108h9.8c1.6,0,2-.6,2-1.4h0c0-1-.6-2.2-1.8-4.4l-20.3-39h23.2l12,27.7,11.1-27.7h21.6l-20.7,44.9c-4.2,9-8.8,13.2-16.6,13.2h-20.2v-13.3Z" style="fill:none; stroke:#000;"/><path d="M267,107.4c-27.6,0-31.7-13.3-31.7-22.2v-1.4c0-8.9,4-21.8,31.6-21.8h5c28.7,0,31.7,13.3,31.7,19.2v.2h-22.2c-.2-1.6-1.7-7.4-11.9-7.4h-.3c-9.3,0-11.7,5.1-11.7,10v.4c0,5.2,2.6,10.9,11.7,10.9h.3c10.2,0,11.7-6.1,11.9-7.8h22.2v.2c0,5.8-2.3,19.8-31.8,19.8h-4.8Z" style="fill:none; stroke:#000;"/><path d="M330.9,107.4c-27.5,0-32.6-13-32.6-22.3v-1.3c0-9.1,5-21.8,32.6-21.8h6.1c28.6,0,32.5,12.8,32.5,21.8v1.4c0,9.2-3.6,22.2-32.6,22.2h-5.9ZM333.9,74.1c-10.7,0-13.5,5.4-13.5,10.1v.3c0,4.7,2.7,10.6,13.5,10.6h0c10.6,0,13.4-6.2,13.4-10.6v-.3c0-4.7-2.8-10.1-13.4-10.1h0Z" style="fill:none; stroke:#000;"/><path d="M382.7,106.2c-7.4,0-11.4-4-11.4-12.2v-17.6h-8.2v-13.2h8.2v-12.6h21.6v12.6h8.2v13.2h-8.2v12.7c0,2.6.5,3.8,3.6,3.8h4.6v13.4h-18.4Z" style="fill:none; stroke:#000;"/><path d="M415.8,106.2c-7.4,0-11.4-4-11.4-12.2v-17.6h-8.2v-13.2h8.2v-12.6h21.6v12.6h8.2v13.2h-8.2v12.7c0,2.6.5,3.8,3.6,3.8h4.6v13.4h-18.4Z" style="fill:none; stroke:#000;"/><path d="M465.3,106.2c-7.4,0-11.4-4-11.4-12.2v-17.6h-8.2v-13.2h8.2v-12.6h21.6v12.6h8.2v13.2h-8.2v12.7c0,2.6.5,3.8,3.6,3.8h4.6v13.4h-18.4Z" style="fill:none; stroke:#000;"/><path d="M480.9,46.7h21.8v24c1.8-1.8,8.7-8.5,22.1-8.5h.5c16.1,0,21.1,9.5,21.1,16.3v27.7h-21.8v-20.6c0-5.8-3-9.9-10.4-9.9s-11.4,4.4-11.4,10.5v20h-21.8v-59.5Z" style="fill:none; stroke:#000;"/><path d="M610.9,90.7c0,6-3.7,16.7-31.8,16.7h-4.2c-26.5,0-32-12.1-32-22.2v-1.6c0-9.9,5.1-21.7,31.8-21.7h4.4c28.1,0,32,13.1,32,23.4v2.4h-46.8c.6,4.5,4.3,7.9,13,7.9h0c10.3,0,11.9-4.2,12.1-5.2h21.4v.2ZM564.5,79h24.8c-.9-4.1-4.2-6.5-12.4-6.5s-11.4,2.6-12.4,6.5Z" style="fill:none; stroke:#000;"/><path d="M74.4,204.5c-32.9,0-36.3-13.4-36.3-21.1v-.8h25c.2,3.2,1.9,8.4,14.9,8.4h.7c12.7,0,14.6-2.7,14.6-5.6h0c0-3.1-1.5-5-14-5.4l-11-.3c-23-.6-29.2-8.7-29.2-17.9v-.7c0-9.7,6.5-18.2,34.2-18.2h7.1c29.4,0,36.2,9.4,36.2,18.8v.6h-24.7c-.2-2.2-1.5-6.3-14.4-6.3h-.8c-11.9,0-13.1,2.1-13.1,4.4h0c0,2.5,1.8,4.4,13,4.6l10.7.2c22.6.6,31.4,5.9,31.4,17.9v1.1c0,10-5.6,20.2-36.9,20.2h-7.3Z" style="fill:none; stroke:red;"/><path d="M145.4,204.6c-27.6,0-31.7-13.3-31.7-22.2v-1.4c0-8.9,4-21.8,31.6-21.8h5c28.7,0,31.7,13.3,31.7,19.2v.2h-22.2c-.2-1.6-1.7-7.4-11.9-7.4h-.3c-9.3,0-11.7,5.1-11.7,10v.4c0,5.2,2.6,10.9,11.7,10.9h.3c10.2,0,11.7-6.1,11.9-7.8h22.2v.2c0,5.8-2.3,19.8-31.8,19.8h-4.8Z" style="fill:none; stroke:red;"/><path d="M209.3,204.6c-27.5,0-32.6-13-32.6-22.3v-1.3c0-9.1,5-21.8,32.6-21.8h6.1c28.6,0,32.5,12.8,32.5,21.8v1.4c0,9.2-3.6,22.2-32.6,22.2h-5.9ZM212.3,171.3c-10.7,0-13.5,5.4-13.5,10.1v.3c0,4.7,2.7,10.6,13.5,10.6h0c10.6,0,13.4-6.2,13.4-10.6v-.3c0-4.7-2.8-10.1-13.4-10.1h0Z" style="fill:none; stroke:red;"/><path d="M261.1,203.4c-7.4,0-11.4-4-11.4-12.2v-17.6h-8.2v-13.2h8.2v-12.6h21.6v12.6h8.2v13.2h-8.2v12.7c0,2.6.5,3.8,3.6,3.8h4.6v13.4h-18.4Z" style="fill:none; stroke:red;"/><path d="M298.5,156.8h-21.8v-12.9h21.8v12.9ZM298.5,203.4h-21.8v-43h21.8v43Z" style="fill:none; stroke:red;"/><path d="M315.6,204.2h-.9c-14.4,0-19.9-6.8-19.9-13.8v-1c0-7.2,4.6-11.4,17.4-12.5l20.7-1.8c1.8-.2,2.4-.9,2.4-2.1s-.9-3.3-9.4-3.3h-.3c-9.2,0-9.4,3-9.7,4.4h-20.2v-.5c0-5.8,1.8-14.4,27.6-14.4h4.5c26.9,0,28.7,8,28.7,13.8v15.9c0,1.2.3,1.8,1.8,1.8h2.3v12.6h-18.1c-3.8,0-6.3-2-7-5.8-2.1,2.1-7.6,6.6-20.2,6.6ZM335.3,183.1l-14.4,2.6c-3.8.6-5.3,1.5-5.3,3.7h0c0,2.1,1.4,4.5,6.8,4.5,8,0,12.9-4.4,12.9-8.9v-1.8Z" style="fill:none; stroke:red;"/><path d="M378.3,143.9v22.3c1.8-1.3,8.2-6.6,20.9-6.6h1.7c19.5,0,25.6,10.2,25.6,21.3v1.7c0,11-6.8,21.7-26.4,21.7h-1.6c-12,0-18.6-5-20.6-6.5-.6,1.5-.9,3.8-1.1,5.7h-20.2v-59.5h21.8ZM378.3,182c0,4.9,4.3,10.2,13,10.2h.5c9.7,0,12.6-5.4,12.6-10.2v-.3c0-5.1-2.9-10.2-12.6-10.2h-.5c-9,0-13,5.1-13,10.2v.3Z" style="fill:none; stroke:red;"/><path d="M442.1,204.2h-.9c-14.4,0-19.9-6.8-19.9-13.8v-1c0-7.2,4.6-11.4,17.4-12.5l20.7-1.8c1.8-.2,2.4-.9,2.4-2.1s-.9-3.3-9.4-3.3h-.3c-9.2,0-9.4,3-9.7,4.4h-20.2v-.5c0-5.8,1.8-14.4,27.6-14.4h4.5c26.9,0,28.7,8,28.7,13.8v15.9c0,1.2.3,1.8,1.8,1.8h2.3v12.6h-18.1c-3.8,0-6.3-2-7-5.8-2.1,2.1-7.6,6.6-20.2,6.6ZM461.8,183.1l-14.4,2.6c-3.8.6-5.3,1.5-5.3,3.7h0c0,2.1,1.4,4.5,6.8,4.5,8,0,12.9-4.4,12.9-8.9v-1.8Z" style="fill:none; stroke:red;"/><path d="M483,160.4h21.6v7.6c2.2-2,8.8-8.6,22.2-8.6h.5c16.1,0,21.1,9.5,21.1,16.3v27.7h-21.8v-20.6c0-5.8-3-9.9-10.4-9.9s-11.4,4.4-11.4,10.5v20h-21.8v-43Z" style="fill:none; stroke:red;"/><path d="M546.8,203.4v-59.5h21.8v33.3l14.7-16.8h23.4l-17.5,19,20.1,24h-24.7l-16-19.4v19.4h-21.8Z" style="fill:none; stroke:red;"/><path d="M63.5,282v18.6h-22.7v-59.5h49.6c22,0,28.2,8.7,28.2,19.7v1.3c0,10.8-6.5,19.9-28.2,19.9h-26.9ZM63.5,267.1h24.2c5.2,0,7.5-2.2,7.5-5.4v-.2c0-3.4-2.2-5.4-7.5-5.4h-24.2v11.1Z" style="fill:none; stroke:#000;"/><path d="M115.1,241.1h21.8v24c1.8-1.8,8.7-8.5,22.1-8.5h.5c16.1,0,21.1,9.5,21.1,16.3v27.7h-21.8v-20.6c0-5.8-3-9.9-10.4-9.9s-11.4,4.4-11.4,10.5v20h-21.8v-59.5Z" style="fill:none; stroke:#000;"/><path d="M209.8,301.8c-27.5,0-32.6-13-32.6-22.3v-1.3c0-9.1,5-21.8,32.6-21.8h6.1c28.6,0,32.5,12.8,32.5,21.8v1.4c0,9.2-3.6,22.2-32.6,22.2h-5.9ZM212.8,268.5c-10.7,0-13.5,5.4-13.5,10.1v.3c0,4.7,2.7,10.6,13.5,10.6h0c10.6,0,13.4-6.2,13.4-10.6v-.3c0-4.7-2.8-10.1-13.4-10.1h0Z" style="fill:none; stroke:#000;"/><path d="M261.6,300.6c-7.4,0-11.4-4-11.4-12.2v-17.6h-8.2v-13.2h8.2v-12.6h21.6v12.6h8.2v13.2h-8.2v12.7c0,2.6.5,3.8,3.6,3.8h4.6v13.4h-18.4Z" style="fill:none; stroke:#000;"/><path d="M307.8,301.8c-27.5,0-32.6-13-32.6-22.3v-1.3c0-9.1,5-21.8,32.6-21.8h6.1c28.6,0,32.5,12.8,32.5,21.8v1.4c0,9.2-3.6,22.2-32.6,22.2h-5.9ZM310.8,268.5c-10.7,0-13.5,5.4-13.5,10.1v.3c0,4.7,2.7,10.6,13.5,10.6h0c10.6,0,13.4-6.2,13.4-10.6v-.3c0-4.7-2.8-10.1-13.4-10.1h0Z" style="fill:none; stroke:#000;"/><path d="M416.5,291h-34l-4.6,9.6h-23l29.4-59.5h30.6l31.1,59.5h-24.9l-4.6-9.6ZM399.2,255.7l-9.8,20.5h19.8l-10-20.5Z" style="fill:none; stroke:#000;"/><path d="M445.5,300.6l-17-43h22.6l8.4,27.1,8.2-27.1h22.4l8.4,27,8.2-27h20.8l-16,43h-24.3l-8.6-26.1-8.6,26.1h-24.6Z" style="fill:none; stroke:#000;"/><path d="M539.3,301.4h-.9c-14.4,0-19.9-6.8-19.9-13.8v-1c0-7.2,4.6-11.4,17.4-12.5l20.7-1.8c1.8-.2,2.4-.9,2.4-2.1s-.9-3.3-9.4-3.3h-.3c-9.2,0-9.4,3-9.7,4.4h-20.2v-.5c0-5.8,1.8-14.4,27.6-14.4h4.5c26.9,0,28.7,8,28.7,13.8v15.9c0,1.2.3,1.8,1.8,1.8h2.3v12.6h-18.1c-3.8,0-6.3-2-7-5.8-2.1,2.1-7.6,6.6-20.2,6.6ZM559.1,280.3l-14.4,2.6c-3.8.6-5.3,1.5-5.3,3.7h0c0,2.1,1.4,4.5,6.8,4.5,8,0,12.9-4.4,12.9-8.9v-1.8Z" style="fill:none; stroke:#000;"/><path d="M601.9,265.5c1.7-2.5,7.3-8.9,18-8.9h1c14.2,0,18.1,9.8,18.1,19v4.3h-21.1v-1.5c0-4.8-2.1-8.8-7.8-8.8s-8,3.8-8,9.3v21.7h-21.8v-43h21.6v7.9Z" style="fill:none; stroke:#000;"/><path d="M703.7,241.1v59.5h-21.7v-6.2c-1.4,1.6-7.3,7-20.7,7h-1.4c-18.8,0-26.1-10.3-26.1-21.8v-1.7c0-11,6.7-21.2,25.4-21.2h1.5c13.3,0,19.1,4.7,21.1,6.2v-21.9h21.8ZM681.9,278.7c0-4.8-4.4-9.9-13.5-9.9h-.4c-9.4,0-12.1,5.1-12.1,9.9v.4c0,4.7,3.2,10.2,12.2,10.2h.3c9.3,0,13.5-5.4,13.5-10.2v-.4Z" style="fill:none; stroke:#000;"/><image width="750" height="368" xlink:href="logo-2-1.png"/></svg>