<?xml version="1.0" encoding="UTF-8"?><svg id="a" xmlns="http://www.w3.org/2000/svg" viewBox="0 0 1944.9 200.5"><path d="M.5,7.5h56c17.4,0,22,21.7,22,43.7v2.8c0,24.1-6.3,34.9-10.2,37.8,5.3,4.1,13.7,15.5,13.7,49.4v3.1c0,30.3-5.7,55.6-25.1,55.6H.5V7.5ZM23.2,51.2v27.2h26.4c4.7,0,6.1-6.2,6.1-13.5v-.5c0-7.5-1.4-13.2-6.1-13.2h-26.4ZM23.2,121.6v33.1h27.8c5.9,0,7-9.1,7-16.6v-.8c0-8.3-1.2-15.8-7-15.8h-27.8Z" style="stroke:#fff; stroke-miterlimit:10;"/><path d="M109.1,200c-27.5,0-32.6-42.2-32.6-72.2v-4.1c0-29.5,5-70.6,32.6-70.6h6.1c28.6,0,32.5,41.4,32.5,70.4v4.7c0,29.8-3.6,71.9-32.6,71.9h-5.9ZM112,92.3c-10.7,0-13.5,17.3-13.5,32.6v1c0,15.3,2.7,34.4,13.5,34.4h0c10.6,0,13.4-19.9,13.4-34.4v-1c0-15.3-2.8-32.6-13.4-32.6h0Z" style="stroke:#fff; stroke-miterlimit:10;"/><path d="M147.5,157h9.8c1.6,0,2-2.1,2-4.4v-.3c0-2.8-.6-6.7-1.8-14l-20.3-126.2h23.2l12,89.5,11.1-89.5h21.6l-20.7,145.1c-4.2,29.2-8.8,42.7-16.6,42.7h-20.2v-42.9Z" style="stroke:#fff; stroke-miterlimit:10;"/><path d="M226.7,200c-27.6,0-31.7-42.9-31.7-71.9v-4.7c0-28.7,4-70.4,31.6-70.4h5c28.7,0,31.7,42.9,31.7,62.1v.8h-22.2c-.2-5.2-1.7-24.1-11.9-24.1h-.3c-9.3,0-11.7,16.6-11.7,32.3v1.3c0,16.8,2.6,35.2,11.7,35.2h.3c10.2,0,11.7-19.7,11.9-25.1h22.2v.5c0,18.9-2.3,63.9-31.8,63.9h-4.8Z" style="stroke:#fff; stroke-miterlimit:10;"/><path d="M290.7,200c-27.5,0-32.6-42.2-32.6-72.2v-4.1c0-29.5,5-70.6,32.6-70.6h6.1c28.6,0,32.5,41.4,32.5,70.4v4.7c0,29.8-3.6,71.9-32.6,71.9h-5.9ZM293.6,92.3c-10.7,0-13.5,17.3-13.5,32.6v1c0,15.3,2.7,34.4,13.5,34.4h0c10.6,0,13.4-19.9,13.4-34.4v-1c0-15.3-2.8-32.6-13.4-32.6h0Z" style="stroke:#fff; stroke-miterlimit:10;"/><path d="M342.4,200c-7.4,0-11.4-12.9-11.4-39.6v-56.9h-8.2v-42.7h8.2V20.2h21.6v40.6h8.2v42.7h-8.2v41.1c0,8.5.5,12.2,3.6,12.2h4.6v43.2h-18.4Z" style="stroke:#fff; stroke-miterlimit:10;"/><path d="M375.5,200c-7.4,0-11.4-12.9-11.4-39.6v-56.9h-8.2v-42.7h8.2V20.2h21.6v40.6h8.2v42.7h-8.2v41.1c0,8.5.5,12.2,3.6,12.2h4.6v43.2h-18.4Z" style="stroke:#fff; stroke-miterlimit:10;"/><path d="M454.4,200c-7.4,0-11.4-12.9-11.4-39.6v-56.9h-8.2v-42.7h8.2V20.2h21.6v40.6h8.2v42.7h-8.2v41.1c0,8.5.5,12.2,3.6,12.2h4.6v43.2h-18.4Z" style="stroke:#fff; stroke-miterlimit:10;"/><path d="M470,7.5h21.8v77.6c1.8-5.9,8.7-27.4,22.1-27.4h.5c16.1,0,21.1,30.8,21.1,52.8v89.5h-21.8v-66.5c0-18.6-3-32.1-10.4-32.1s-11.4,14.2-11.4,33.9v64.7h-21.8V7.5Z" style="stroke:#fff; stroke-miterlimit:10;"/><path d="M596.6,145.9c0,19.4-3.5,54.1-30.1,54.1h-4c-25.1,0-30.4-39.1-30.4-71.7v-5.2c0-32.1,4.9-70.1,30.1-70.1h4.2c26.6,0,30.4,42.4,30.4,75.8v7.8h-44.4c.6,14.5,4.1,25.6,12.4,25.6h0c9.8,0,11.3-13.7,11.5-16.8h20.3v.5ZM552.5,108.1h23.5c-.8-13.2-3.9-21-11.8-21s-10.8,8.5-11.8,21Z" style="stroke:#fff; stroke-miterlimit:10;"/><path d="M673.8,200c-32.9,0-36.3-43.2-36.3-68.3v-2.6h25c.2,10.3,1.9,27.2,14.9,27.2h.7c12.7,0,14.6-8.8,14.6-18.1v-.3c0-9.8-1.5-16-14-17.3l-11-1c-23-2.1-29.2-28.2-29.2-57.9v-2.3c0-31.3,6.5-58.7,34.2-58.7h7.1c29.4,0,36.2,30.3,36.2,60.8v2.1h-24.7c-.2-7-1.5-20.4-14.4-20.4h-.8c-11.9,0-13.1,6.7-13.1,14.2v.3c0,7.8,1.8,14,13,14.7l10.7.8c22.6,2.1,31.4,19.1,31.4,57.9v3.6c0,32.3-5.6,65.5-36.9,65.5h-7.3Z" style="fill:red; stroke:#fff; stroke-miterlimit:10;"/><path d="M744.8,200c-27.6,0-31.7-42.9-31.7-71.9v-4.7c0-28.7,4-70.4,31.6-70.4h5c28.7,0,31.7,42.9,31.7,62.1v.8h-22.2c-.2-5.2-1.7-24.1-11.9-24.1h-.3c-9.3,0-11.7,16.6-11.7,32.3v1.3c0,16.8,2.6,35.2,11.7,35.2h.3c10.2,0,11.7-19.7,11.9-25.1h22.2v.5c0,18.9-2.3,63.9-31.8,63.9h-4.8Z" style="fill:red; stroke:#fff; stroke-miterlimit:10;"/><path d="M808.7,200c-27.5,0-32.6-42.2-32.6-72.2v-4.1c0-29.5,5-70.6,32.6-70.6h6.1c28.6,0,32.5,41.4,32.5,70.4v4.7c0,29.8-3.6,71.9-32.6,71.9h-5.9ZM811.7,92.3c-10.7,0-13.5,17.3-13.5,32.6v1c0,15.3,2.7,34.4,13.5,34.4h0c10.6,0,13.4-19.9,13.4-34.4v-1c0-15.3-2.8-32.6-13.4-32.6h0Z" style="fill:red; stroke:#fff; stroke-miterlimit:10;"/><path d="M860.5,200c-7.4,0-11.4-12.9-11.4-39.6v-56.9h-8.2v-42.7h8.2V20.2h21.6v40.6h8.2v42.7h-8.2v41.1c0,8.5.5,12.2,3.6,12.2h4.6v43.2h-18.4Z" style="fill:red; stroke:#fff; stroke-miterlimit:10;"/><path d="M897.8,49.1h-21.8V7.5h21.8v41.7ZM897.8,200h-21.8V60.8h21.8v139.2Z" style="fill:red; stroke:#fff; stroke-miterlimit:10;"/><path d="M915,200h-.9c-14.4,0-19.9-22-19.9-44.8v-3.1c0-23.3,4.6-37,17.4-40.4l20.7-6c1.8-.8,2.4-2.8,2.4-6.7s-.9-10.6-9.4-10.6h-.3c-9.2,0-9.4,9.8-9.7,14.2h-20.2v-1.6c0-18.6,1.8-46.6,27.6-46.6h4.5c26.9,0,28.7,25.9,28.7,44.8v51.5c0,3.9.3,6,1.8,6h2.3v40.6h-18.1c-3.8,0-6.3-6.5-7-18.6-2.1,6.7-7.6,21.2-20.2,21.2ZM934.7,131.7l-14.4,8.3c-3.8,2.1-5.3,4.9-5.3,11.9v.3c0,6.5,1.4,14.2,6.8,14.2,8,0,12.9-14.2,12.9-28.7v-5.9Z" style="fill:red; stroke:#fff; stroke-miterlimit:10;"/><path d="M977.7,4.9v72.2c1.8-4.1,8.2-21.5,20.9-21.5h1.7c19.5,0,25.6,32.9,25.6,68.8v5.4c0,35.7-6.8,70.1-26.4,70.1h-1.6c-12,0-18.6-16.3-20.6-21-.6,4.9-.9,12.4-1.1,18.4h-20.2V4.9h21.8ZM977.7,128c0,15.8,4.3,33.1,13,33.1h.5c9.7,0,12.6-17.6,12.6-33.1v-1c0-16.6-2.9-33.1-12.6-33.1h-.5c-9,0-13,16.6-13,33.1v1Z" style="fill:red; stroke:#fff; stroke-miterlimit:10;"/><path d="M1041.4,200h-.9c-14.4,0-19.9-22-19.9-44.8v-3.1c0-23.3,4.6-37,17.4-40.4l20.7-6c1.8-.8,2.4-2.8,2.4-6.7s-.9-10.6-9.4-10.6h-.3c-9.2,0-9.4,9.8-9.7,14.2h-20.2v-1.6c0-18.6,1.8-46.6,27.6-46.6h4.5c26.9,0,28.7,25.9,28.7,44.8v51.5c0,3.9.3,6,1.8,6h2.3v40.6h-18.1c-3.8,0-6.3-6.5-7-18.6-2.1,6.7-7.6,21.2-20.2,21.2ZM1061.2,131.7l-14.4,8.3c-3.8,2.1-5.3,4.9-5.3,11.9v.3c0,6.5,1.4,14.2,6.8,14.2,8,0,12.9-14.2,12.9-28.7v-5.9Z" style="fill:red; stroke:#fff; stroke-miterlimit:10;"/><path d="M1082.4,60.8h21.6v24.6c2.2-6.5,8.8-27.7,22.2-27.7h.5c16.1,0,21.1,30.8,21.1,52.8v89.5h-21.8v-66.5c0-18.6-3-32.1-10.4-32.1s-11.4,14.2-11.4,33.9v64.7h-21.8V60.8Z" style="fill:red; stroke:#fff; stroke-miterlimit:10;"/><path d="M1146.2,200V7.5h21.8v107.6l14.7-54.3h23.4l-17.5,61.6,20.1,77.6h-24.7l-16-62.6v62.6h-21.8Z" style="fill:red; stroke:#fff; stroke-miterlimit:10;"/><path d="M1272.1,139.7v60.3h-22.7V7.5h49.6c22,0,28.2,28.2,28.2,63.6v4.1c0,34.9-6.5,64.4-28.2,64.4h-26.9ZM1272.1,91.6h24.2c5.2,0,7.5-7,7.5-17.6v-.8c0-11.1-2.2-17.6-7.5-17.6h-24.2v36Z" style="stroke:#fff; stroke-miterlimit:10;"/><path d="M1323.7,7.5h21.8v77.6c1.8-5.9,8.7-27.4,22.1-27.4h.5c16.1,0,21.1,30.8,21.1,52.8v89.5h-21.8v-66.5c0-18.6-3-32.1-10.4-32.1s-11.4,14.2-11.4,33.9v64.7h-21.8V7.5Z" style="stroke:#fff; stroke-miterlimit:10;"/><path d="M1418.4,200c-27.5,0-32.6-42.2-32.6-72.2v-4.1c0-29.5,5-70.6,32.6-70.6h6.1c28.6,0,32.5,41.4,32.5,70.4v4.7c0,29.8-3.6,71.9-32.6,71.9h-5.9ZM1421.4,92.3c-10.7,0-13.5,17.3-13.5,32.6v1c0,15.3,2.7,34.4,13.5,34.4h0c10.6,0,13.4-19.9,13.4-34.4v-1c0-15.3-2.8-32.6-13.4-32.6h0Z" style="stroke:#fff; stroke-miterlimit:10;"/><path d="M1470.2,200c-7.4,0-11.4-12.9-11.4-39.6v-56.9h-8.2v-42.7h8.2V20.2h21.6v40.6h8.2v42.7h-8.2v41.1c0,8.5.5,12.2,3.6,12.2h4.6v43.2h-18.4Z" style="stroke:#fff; stroke-miterlimit:10;"/><path d="M1516.4,200c-27.5,0-32.6-42.2-32.6-72.2v-4.1c0-29.5,5-70.6,32.6-70.6h6.1c28.6,0,32.5,41.4,32.5,70.4v4.7c0,29.8-3.6,71.9-32.6,71.9h-5.9ZM1519.4,92.3c-10.7,0-13.5,17.3-13.5,32.6v1c0,15.3,2.7,34.4,13.5,34.4h0c10.6,0,13.4-19.9,13.4-34.4v-1c0-15.3-2.8-32.6-13.4-32.6h0Z" style="stroke:#fff; stroke-miterlimit:10;"/><path d="M1657.2,168.9h-34l-4.6,31h-23l29.4-192.5h30.6l31.1,192.5h-24.9l-4.6-31ZM1639.9,54.6l-9.8,66.2h19.8l-10-66.2Z" style="stroke:#fff; stroke-miterlimit:10;"/><path d="M1686.3,200l-17-139.2h22.6l8.4,87.7,8.2-87.7h22.4l8.4,87.4,8.2-87.4h20.8l-16,139.2h-24.3l-8.6-84.3-8.6,84.3h-24.6Z" style="stroke:#fff; stroke-miterlimit:10;"/><path d="M1780.1,200h-.9c-14.4,0-19.9-22-19.9-44.8v-3.1c0-23.3,4.6-37,17.4-40.4l20.7-6c1.8-.8,2.4-2.8,2.4-6.7s-.9-10.6-9.4-10.6h-.3c-9.2,0-9.4,9.8-9.7,14.2h-20.2v-1.6c0-18.6,1.8-46.6,27.6-46.6h4.5c26.9,0,28.7,25.9,28.7,44.8v51.5c0,3.9.3,6,1.8,6h2.3v40.6h-18.1c-3.8,0-6.3-6.5-7-18.6-2.1,6.7-7.6,21.2-20.2,21.2ZM1799.9,131.7l-14.4,8.3c-3.8,2.1-5.3,4.9-5.3,11.9v.3c0,6.5,1.4,14.2,6.8,14.2,8,0,12.9-14.2,12.9-28.7v-5.9Z" style="stroke:#fff; stroke-miterlimit:10;"/><path d="M1842.7,86.4c1.7-8,7.3-28.7,18-28.7h1c14.2,0,18.1,31.8,18.1,61.6v14h-21.1v-4.9c0-15.5-2.1-28.5-7.8-28.5s-8,12.4-8,30v70.1h-21.8V60.8h21.6v25.6Z" style="stroke:#fff; stroke-miterlimit:10;"/><path d="M1944.4,4.9v192.5h-21.7v-20.2c-1.4,5.2-7.3,22.8-20.7,22.8h-1.4c-18.8,0-26.1-33.4-26.1-70.4v-5.4c0-35.4,6.7-68.6,25.4-68.6h1.5c13.3,0,19.1,15.3,21.1,20.2V4.9h21.8ZM1922.7,126.5c0-15.5-4.4-32.1-13.5-32.1h-.4c-9.4,0-12.1,16.6-12.1,32.1v1.3c0,15.3,3.2,32.9,12.2,32.9h.3c9.3,0,13.5-17.3,13.5-32.9v-1.3Z" style="stroke:#fff; stroke-miterlimit:10;"/></svg>