<?xml version="1.0" encoding="UTF-8"?><svg id="a" xmlns="http://www.w3.org/2000/svg" xmlns:xlink="http://www.w3.org/1999/xlink" viewBox="0 0 721 303.1"><path d="M3.4.5h60.6c18.8,0,23.8,8,23.8,16v1c0,8.8-6.8,12.8-11.1,13.8,5.7,1.5,14.8,5.7,14.8,18.1v1.1c0,11.1-6.1,20.4-27.2,20.4H3.4V.5ZM28,16.5v9.9h28.6c5.1,0,6.6-2.3,6.6-4.9v-.2c0-2.7-1.5-4.8-6.6-4.8h-28.6ZM28,42.3v12.1h30.1c6.4,0,7.6-3.3,7.6-6.1v-.3c0-3-1.3-5.8-7.6-5.8h-30.1Z" style="fill:none; stroke:#000;"/><path d="M120.9,72.4c-29.8,0-35.3-15.4-35.3-26.4v-1.5c0-10.8,5.4-25.9,35.2-25.9h6.6c30.9,0,35.1,15.2,35.1,25.8v1.7c0,10.9-3.9,26.3-35.2,26.3h-6.4ZM124.1,33c-11.6,0-14.6,6.3-14.6,11.9v.4c0,5.6,2.9,12.6,14.6,12.6h0c11.5,0,14.5-7.3,14.5-12.6v-.4c0-5.6-3-11.9-14.5-11.9h0Z" style="fill:none; stroke:#000;"/><path d="M162.4,73.1h10.6c1.7,0,2.2-.8,2.2-1.6h0c0-1.1-.7-2.6-2-5.2l-22-46.2h25.1l13,32.8,12-32.8h23.4l-22.4,53.1c-4.5,10.7-9.5,15.6-17.9,15.6h-21.9v-15.7Z" style="fill:none; stroke:#000;"/><path d="M248.2,72.4c-29.9,0-34.3-15.7-34.3-26.3v-1.7c0-10.5,4.3-25.8,34.2-25.8h5.4c31.1,0,34.3,15.7,34.3,22.7v.3h-24.1c-.3-1.9-1.8-8.8-12.9-8.8h-.3c-10,0-12.6,6.1-12.6,11.8v.5c0,6.2,2.8,12.9,12.6,12.9h.3c11,0,12.6-7.2,12.9-9.2h24.1v.2c0,6.9-2.5,23.4-34.4,23.4h-5.2Z" style="fill:none; stroke:#000;"/><path d="M317.3,72.4c-29.8,0-35.3-15.4-35.3-26.4v-1.5c0-10.8,5.4-25.9,35.2-25.9h6.6c30.9,0,35.1,15.2,35.1,25.8v1.7c0,10.9-3.9,26.3-35.2,26.3h-6.4ZM320.5,33c-11.6,0-14.6,6.3-14.6,11.9v.4c0,5.6,2.9,12.6,14.6,12.6h0c11.5,0,14.5-7.3,14.5-12.6v-.4c0-5.6-3-11.9-14.5-11.9h0Z" style="fill:none; stroke:#000;"/><path d="M373.3,71c-8,0-12.4-4.7-12.4-14.5v-20.8h-8.9v-15.6h8.9V5.1h23.4v14.9h8.9v15.6h-8.9v15.1c0,3.1.5,4.5,3.9,4.5h5v15.8h-19.9Z" style="fill:none; stroke:#000;"/><path d="M409.1,71c-8,0-12.4-4.7-12.4-14.5v-20.8h-8.9v-15.6h8.9V5.1h23.4v14.9h8.9v15.6h-8.9v15.1c0,3.1.5,4.5,3.9,4.5h5v15.8h-19.9Z" style="fill:none; stroke:#000;"/><path d="M462.6,71c-8,0-12.4-4.7-12.4-14.5v-20.8h-8.9v-15.6h8.9V5.1h23.4v14.9h8.9v15.6h-8.9v15.1c0,3.1.5,4.5,3.9,4.5h5v15.8h-19.9Z" style="fill:none; stroke:#000;"/><path d="M479.5.5h23.5v28.4c2-2.2,9.4-10,23.9-10h.5c17.4,0,22.8,11.3,22.8,19.3v32.8h-23.6v-24.3c0-6.8-3.2-11.7-11.3-11.7s-12.4,5.2-12.4,12.4v23.7h-23.5V.5Z" style="fill:none; stroke:#000;"/><path d="M620.2,52.6c0,7.1-4,19.8-34.4,19.8h-4.6c-28.6,0-34.6-14.3-34.6-26.2v-1.9c0-11.7,5.5-25.7,34.4-25.7h4.8c30.4,0,34.6,15.5,34.6,27.8v2.8h-50.6c.7,5.3,4.7,9.4,14.1,9.4h0c11.2,0,12.9-5,13.1-6.2h23.2v.2ZM570,38.8h26.8c-1-4.8-4.5-7.7-13.4-7.7s-12.3,3.1-13.4,7.7Z" style="fill:none; stroke:#000;"/><path d="M39.8,187.4c-35.6,0-39.3-15.8-39.3-25v-.9h27c.3,3.8,2.1,9.9,16.1,9.9h.8c13.8,0,15.7-3.2,15.7-6.6h0c0-3.7-1.6-6-15.1-6.4l-11.9-.4c-24.9-.8-31.6-10.3-31.6-21.2v-.9c0-11.5,7-21.5,37-21.5h7.7c31.8,0,39.1,11.1,39.1,22.3v.8h-26.7c-.3-2.6-1.6-7.5-15.6-7.5h-.9c-12.9,0-14.2,2.5-14.2,5.2h0c0,2.9,1.9,5.2,14,5.5l11.6.3c24.5.8,34,7,34,21.2v1.3c0,11.8-6.1,24-39.9,24h-7.9Z" style="fill:none; stroke:red;"/><path d="M116.6,187.5c-29.9,0-34.3-15.7-34.3-26.3v-1.7c0-10.5,4.3-25.8,34.2-25.8h5.4c31.1,0,34.3,15.7,34.3,22.7v.3h-24.1c-.3-1.9-1.8-8.8-12.9-8.8h-.3c-10,0-12.6,6.1-12.6,11.8v.5c0,6.2,2.8,12.9,12.6,12.9h.3c11,0,12.6-7.2,12.9-9.2h24.1v.2c0,6.9-2.5,23.4-34.4,23.4h-5.2Z" style="fill:none; stroke:red;"/><path d="M185.8,187.5c-29.8,0-35.3-15.4-35.3-26.4v-1.5c0-10.8,5.4-25.9,35.2-25.9h6.6c30.9,0,35.1,15.2,35.1,25.8v1.7c0,10.9-3.9,26.3-35.2,26.3h-6.4ZM189,148.1c-11.6,0-14.6,6.3-14.6,11.9v.4c0,5.6,2.9,12.6,14.6,12.6h0c11.5,0,14.5-7.3,14.5-12.6v-.4c0-5.6-3-11.9-14.5-11.9h0Z" style="fill:none; stroke:red;"/><path d="M241.8,186.1c-8,0-12.4-4.7-12.4-14.5v-20.8h-8.9v-15.6h8.9v-14.9h23.4v14.9h8.9v15.6h-8.9v15.1c0,3.1.5,4.5,3.9,4.5h5v15.8h-19.9Z" style="fill:none; stroke:red;"/><path d="M282.2,130.8h-23.5v-15.3h23.5v15.3ZM282.2,186.1h-23.5v-51h23.5v51Z" style="fill:none; stroke:red;"/><path d="M300.7,187h-1c-15.6,0-21.5-8.1-21.5-16.4v-1.1c0-8.5,5-13.5,18.9-14.8l22.4-2.2c2-.3,2.6-1,2.6-2.5s-1-3.9-10.1-3.9h-.3c-10,0-10.2,3.6-10.5,5.2h-21.8v-.6c0-6.8,1.9-17.1,29.9-17.1h4.8c29.1,0,31.1,9.5,31.1,16.4v18.9c0,1.4.3,2.2,2,2.2h2.5v14.9h-19.6c-4.1,0-6.8-2.4-7.5-6.8-2.3,2.5-8.2,7.8-21.8,7.8ZM322.1,162l-15.6,3c-4.1.8-5.7,1.8-5.7,4.4h0c0,2.5,1.6,5.3,7.4,5.3,8.7,0,13.9-5.2,13.9-10.5v-2.2Z" style="fill:none; stroke:red;"/><path d="M368.5,115.6v26.4c1.9-1.5,8.9-7.9,22.6-7.9h1.8c21.1,0,27.7,12,27.7,25.2v2c0,13.1-7.4,25.7-28.6,25.7h-1.7c-13,0-20.2-6-22.2-7.7-.6,1.8-1,4.5-1.2,6.7h-21.9v-70.5h23.5ZM368.5,160.7c0,5.8,4.7,12.1,14.1,12.1h.5c10.5,0,13.6-6.4,13.6-12.1v-.4c0-6.1-3.1-12.1-13.6-12.1h-.5c-9.7,0-14.1,6.1-14.1,12.1v.4Z" style="fill:none; stroke:red;"/><path d="M437.5,187h-1c-15.6,0-21.5-8.1-21.5-16.4v-1.1c0-8.5,5-13.5,18.9-14.8l22.4-2.2c2-.3,2.6-1,2.6-2.5s-1-3.9-10.1-3.9h-.3c-10,0-10.2,3.6-10.5,5.2h-21.8v-.6c0-6.8,1.9-17.1,29.9-17.1h4.8c29.1,0,31.1,9.5,31.1,16.4v18.9c0,1.4.3,2.2,2,2.2h2.5v14.9h-19.6c-4.1,0-6.8-2.4-7.5-6.8-2.3,2.5-8.2,7.8-21.8,7.8ZM458.9,162l-15.6,3c-4.1.8-5.7,1.8-5.7,4.4h0c0,2.5,1.6,5.3,7.4,5.3,8.7,0,13.9-5.2,13.9-10.5v-2.2Z" style="fill:none; stroke:red;"/><path d="M481.8,135.1h23.4v9c2.3-2.4,9.5-10.1,24.1-10.1h.5c17.4,0,22.8,11.3,22.8,19.3v32.8h-23.6v-24.3c0-6.8-3.2-11.7-11.3-11.7s-12.4,5.2-12.4,12.4v23.7h-23.5v-51Z" style="fill:none; stroke:red;"/><path d="M550.8,186.1v-70.5h23.5v39.4l15.9-19.9h25.4l-19,22.5,21.7,28.4h-26.7l-17.3-22.9v22.9h-23.5Z" style="fill:none; stroke:red;"/><path d="M28,279.1v22.1H3.4v-70.5h53.7c23.8,0,30.5,10.3,30.5,23.3v1.5c0,12.8-7,23.6-30.5,23.6h-29.1ZM28,261.5h26.1c5.6,0,8.1-2.6,8.1-6.4v-.3c0-4.1-2.3-6.4-8.1-6.4h-26.1v13.2Z" style="fill:none; stroke:#000;"/><path d="M83.8,230.7h23.5v28.4c2-2.2,9.4-10,23.9-10h.5c17.4,0,22.8,11.3,22.8,19.3v32.8h-23.6v-24.3c0-6.8-3.2-11.7-11.3-11.7s-12.4,5.2-12.4,12.4v23.7h-23.5v-70.5Z" style="fill:none; stroke:#000;"/><path d="M186.3,302.6c-29.8,0-35.3-15.4-35.3-26.4v-1.5c0-10.8,5.4-25.9,35.2-25.9h6.6c30.9,0,35.1,15.2,35.1,25.8v1.7c0,10.9-3.9,26.3-35.2,26.3h-6.4ZM189.5,263.2c-11.6,0-14.6,6.3-14.6,11.9v.4c0,5.6,2.9,12.6,14.6,12.6h0c11.5,0,14.5-7.3,14.5-12.6v-.4c0-5.6-3-11.9-14.5-11.9h0Z" style="fill:none; stroke:#000;"/><path d="M242.3,301.2c-8,0-12.4-4.7-12.4-14.5v-20.8h-8.9v-15.6h8.9v-14.9h23.4v14.9h8.9v15.6h-8.9v15.1c0,3.1.5,4.5,3.9,4.5h5v15.8h-19.9Z" style="fill:none; stroke:#000;"/><path d="M292.3,302.6c-29.8,0-35.3-15.4-35.3-26.4v-1.5c0-10.8,5.4-25.9,35.2-25.9h6.6c30.9,0,35.1,15.2,35.1,25.8v1.7c0,10.9-3.9,26.3-35.2,26.3h-6.4ZM295.5,263.2c-11.6,0-14.6,6.3-14.6,11.9v.4c0,5.6,2.9,12.6,14.6,12.6h0c11.5,0,14.5-7.3,14.5-12.6v-.4c0-5.6-3-11.9-14.5-11.9h0Z" style="fill:none; stroke:#000;"/><path d="M409.8,289.8h-36.8l-4.9,11.4h-24.9l31.8-70.5h33.1l33.7,70.5h-26.9l-5-11.4ZM391.1,247.9l-10.6,24.3h21.4l-10.8-24.3Z" style="fill:none; stroke:#000;"/><path d="M441.2,301.2l-18.3-51h24.5l9.1,32.1,8.9-32.1h24.2l9.1,32,8.9-32h22.5l-17.3,51h-26.3l-9.3-30.9-9.3,30.9h-26.6Z" style="fill:none; stroke:#000;"/><path d="M542.7,302.1h-1c-15.6,0-21.5-8.1-21.5-16.4v-1.1c0-8.5,5-13.5,18.9-14.8l22.4-2.2c2-.3,2.6-1,2.6-2.5s-1-3.9-10.1-3.9h-.3c-10,0-10.2,3.6-10.5,5.2h-21.8v-.6c0-6.8,1.9-17.1,29.9-17.1h4.8c29.1,0,31.1,9.5,31.1,16.4v18.9c0,1.4.3,2.2,2,2.2h2.5v14.9h-19.6c-4.1,0-6.8-2.4-7.5-6.8-2.3,2.5-8.2,7.8-21.8,7.8ZM564.1,277.1l-15.6,3c-4.1.8-5.7,1.8-5.7,4.4h0c0,2.5,1.6,5.3,7.4,5.3,8.7,0,13.9-5.2,13.9-10.5v-2.2Z" style="fill:none; stroke:#000;"/><path d="M610.4,259.6c1.8-2.9,7.9-10.5,19.5-10.5h1c15.4,0,19.6,11.7,19.6,22.5v5.1h-22.8v-1.8c0-5.7-2.3-10.4-8.4-10.4s-8.7,4.5-8.7,11v25.7h-23.5v-51h23.4v9.4Z" style="fill:none; stroke:#000;"/><path d="M720.5,230.7v70.5h-23.5v-7.4c-1.6,1.9-7.9,8.3-22.4,8.3h-1.5c-20.3,0-28.2-12.2-28.2-25.8v-2c0-13,7.3-25.1,27.5-25.1h1.6c14.4,0,20.7,5.6,22.8,7.4v-26h23.5ZM696.9,275.2c0-5.7-4.8-11.7-14.6-11.7h-.4c-10.2,0-13.1,6.1-13.1,11.7v.5c0,5.6,3.5,12,13.2,12h.3c10,0,14.6-6.3,14.6-12v-.5Z" style="fill:none; stroke:#000;"/><image width="793" height="375" transform="translate(-36.7 -36.2)" xlink:href="logo-3-1.png"/></svg>